<mxfile host="Electron" agent="Mozilla/5.0 (X11; Linux x86_64) AppleWebKit/537.36 (KHTML, like Gecko) draw.io/25.0.1 Chrome/128.0.6613.186 Electron/32.2.6 Safari/537.36" version="25.0.1" pages="5">
  <diagram name="crane" id="eLx9EJHupklcVxUpY8yW">
    <mxGraphModel dx="1917" dy="1035" grid="1" gridSize="10" guides="1" tooltips="1" connect="1" arrows="1" fold="1" page="1" pageScale="1" pageWidth="850" pageHeight="1100" math="0" shadow="0">
      <root>
        <mxCell id="0" />
        <mxCell id="1" parent="0" />
        <mxCell id="fbMJmQye7RYr-MuRy0oP-3" value="Joint #3" style="ellipse;whiteSpace=wrap;html=1;aspect=fixed;strokeWidth=6;strokeColor=#B5739D;" vertex="1" parent="1">
          <mxGeometry x="330" y="430" width="70" height="70" as="geometry" />
        </mxCell>
        <mxCell id="ol_gCKP81isXlxX4ogD6-1" value="Rigid body" style="ellipse;whiteSpace=wrap;html=1;aspect=fixed;" vertex="1" parent="1">
          <mxGeometry x="110" y="610" width="80" height="80" as="geometry" />
        </mxCell>
        <mxCell id="ol_gCKP81isXlxX4ogD6-2" value="Rigid Body" style="ellipse;whiteSpace=wrap;html=1;aspect=fixed;" vertex="1" parent="1">
          <mxGeometry x="270" y="610" width="80" height="80" as="geometry" />
        </mxCell>
        <mxCell id="ol_gCKP81isXlxX4ogD6-3" value="Rigid Body" style="ellipse;whiteSpace=wrap;html=1;aspect=fixed;" vertex="1" parent="1">
          <mxGeometry x="270" y="400" width="80" height="80" as="geometry" />
        </mxCell>
        <mxCell id="ol_gCKP81isXlxX4ogD6-4" value="Fixation" style="shape=flexArrow;endArrow=classic;startArrow=classic;html=1;rounded=0;exitX=0.5;exitY=0;exitDx=0;exitDy=0;entryX=0.5;entryY=1;entryDx=0;entryDy=0;" edge="1" parent="1" source="ol_gCKP81isXlxX4ogD6-2" target="ol_gCKP81isXlxX4ogD6-3">
          <mxGeometry width="100" height="100" relative="1" as="geometry">
            <mxPoint x="400" y="780" as="sourcePoint" />
            <mxPoint x="500" y="680" as="targetPoint" />
          </mxGeometry>
        </mxCell>
        <mxCell id="ol_gCKP81isXlxX4ogD6-5" value="Joint (inward fixation)" style="shape=flexArrow;endArrow=classic;html=1;rounded=0;exitX=1;exitY=0;exitDx=0;exitDy=0;entryX=0;entryY=1;entryDx=0;entryDy=0;" edge="1" parent="1" source="ol_gCKP81isXlxX4ogD6-1" target="ol_gCKP81isXlxX4ogD6-3">
          <mxGeometry width="50" height="50" relative="1" as="geometry">
            <mxPoint x="200" y="410" as="sourcePoint" />
            <mxPoint x="250" y="360" as="targetPoint" />
          </mxGeometry>
        </mxCell>
        <mxCell id="ol_gCKP81isXlxX4ogD6-6" value="Rigid body" style="ellipse;whiteSpace=wrap;html=1;aspect=fixed;" vertex="1" parent="1">
          <mxGeometry x="110" y="770" width="80" height="80" as="geometry" />
        </mxCell>
        <mxCell id="ol_gCKP81isXlxX4ogD6-7" value="Rigid Body" style="ellipse;whiteSpace=wrap;html=1;aspect=fixed;" vertex="1" parent="1">
          <mxGeometry x="270" y="770" width="80" height="80" as="geometry" />
        </mxCell>
        <mxCell id="ol_gCKP81isXlxX4ogD6-8" value="Fixation" style="shape=flexArrow;endArrow=classic;startArrow=classic;html=1;rounded=0;exitX=0.5;exitY=0;exitDx=0;exitDy=0;entryX=0.5;entryY=1;entryDx=0;entryDy=0;" edge="1" parent="1" source="ol_gCKP81isXlxX4ogD6-7" target="ol_gCKP81isXlxX4ogD6-2">
          <mxGeometry width="100" height="100" relative="1" as="geometry">
            <mxPoint x="400" y="800" as="sourcePoint" />
            <mxPoint x="400" y="670" as="targetPoint" />
          </mxGeometry>
        </mxCell>
        <mxCell id="ol_gCKP81isXlxX4ogD6-9" value="Fixation" style="shape=flexArrow;endArrow=classic;startArrow=classic;html=1;rounded=0;exitX=0;exitY=0.5;exitDx=0;exitDy=0;entryX=1;entryY=0.5;entryDx=0;entryDy=0;" edge="1" parent="1" source="ol_gCKP81isXlxX4ogD6-7" target="ol_gCKP81isXlxX4ogD6-6">
          <mxGeometry width="100" height="100" relative="1" as="geometry">
            <mxPoint x="320" y="780" as="sourcePoint" />
            <mxPoint x="320" y="700" as="targetPoint" />
          </mxGeometry>
        </mxCell>
        <mxCell id="ol_gCKP81isXlxX4ogD6-10" value="Fixation" style="shape=flexArrow;endArrow=classic;startArrow=classic;html=1;rounded=0;entryX=0;entryY=0.5;entryDx=0;entryDy=0;exitX=1;exitY=0.5;exitDx=0;exitDy=0;" edge="1" parent="1" source="ol_gCKP81isXlxX4ogD6-1" target="ol_gCKP81isXlxX4ogD6-2">
          <mxGeometry width="100" height="100" relative="1" as="geometry">
            <mxPoint x="370" y="1030" as="sourcePoint" />
            <mxPoint x="470" y="930" as="targetPoint" />
          </mxGeometry>
        </mxCell>
        <mxCell id="ol_gCKP81isXlxX4ogD6-11" value="Fixation" style="shape=flexArrow;endArrow=classic;startArrow=classic;html=1;rounded=0;entryX=0.5;entryY=1;entryDx=0;entryDy=0;exitX=0.5;exitY=0;exitDx=0;exitDy=0;" edge="1" parent="1" source="ol_gCKP81isXlxX4ogD6-6" target="ol_gCKP81isXlxX4ogD6-1">
          <mxGeometry width="100" height="100" relative="1" as="geometry">
            <mxPoint x="40" y="1060" as="sourcePoint" />
            <mxPoint x="140" y="960" as="targetPoint" />
          </mxGeometry>
        </mxCell>
        <mxCell id="ol_gCKP81isXlxX4ogD6-12" value="Translational motion" style="shape=flexArrow;endArrow=classic;startArrow=classic;html=1;rounded=0;fillColor=#000000;" edge="1" parent="1">
          <mxGeometry width="100" height="100" relative="1" as="geometry">
            <mxPoint x="130" y="580" as="sourcePoint" />
            <mxPoint x="230" y="460" as="targetPoint" />
          </mxGeometry>
        </mxCell>
        <mxCell id="ol_gCKP81isXlxX4ogD6-13" value="Rigid Body" style="ellipse;whiteSpace=wrap;html=1;aspect=fixed;" vertex="1" parent="1">
          <mxGeometry x="395" y="550" width="80" height="80" as="geometry" />
        </mxCell>
        <mxCell id="ol_gCKP81isXlxX4ogD6-14" value="Joint (inward fixation)" style="shape=flexArrow;endArrow=classic;html=1;rounded=0;exitX=1;exitY=1;exitDx=0;exitDy=0;entryX=0.5;entryY=0;entryDx=0;entryDy=0;" edge="1" parent="1" source="ol_gCKP81isXlxX4ogD6-3" target="ol_gCKP81isXlxX4ogD6-13">
          <mxGeometry x="0.6338" y="20" width="50" height="50" relative="1" as="geometry">
            <mxPoint x="630" y="500" as="sourcePoint" />
            <mxPoint x="680" y="450" as="targetPoint" />
            <mxPoint y="1" as="offset" />
          </mxGeometry>
        </mxCell>
        <mxCell id="ol_gCKP81isXlxX4ogD6-15" value="" style="html=1;shadow=0;dashed=0;align=center;verticalAlign=middle;shape=mxgraph.arrows2.uTurnArrow;dy=11;arrowHead=43;dx2=25;fillColor=default;rotation=45;gradientColor=default;" vertex="1" parent="1">
          <mxGeometry x="360" y="440" width="50" height="100" as="geometry" />
        </mxCell>
        <mxCell id="ol_gCKP81isXlxX4ogD6-18" value="Revolute motion around DoF (AXIS-Z)" style="text;html=1;align=center;verticalAlign=middle;whiteSpace=wrap;rounded=0;" vertex="1" parent="1">
          <mxGeometry x="355" y="430" width="120" height="30" as="geometry" />
        </mxCell>
        <mxCell id="fbMJmQye7RYr-MuRy0oP-1" value="Joint #1" style="ellipse;whiteSpace=wrap;html=1;aspect=fixed;strokeWidth=6;strokeColor=#B5739D;" vertex="1" parent="1">
          <mxGeometry x="170" y="670" width="120" height="120" as="geometry" />
        </mxCell>
        <mxCell id="fbMJmQye7RYr-MuRy0oP-2" value="Joint #2" style="ellipse;whiteSpace=wrap;html=1;aspect=fixed;strokeWidth=6;strokeColor=#B5739D;" vertex="1" parent="1">
          <mxGeometry x="220" y="560" width="70" height="70" as="geometry" />
        </mxCell>
        <mxCell id="Co3uQQMz_Gz1IZ39Et4X-2" value="AXIS_X" style="shape=flexArrow;endArrow=classic;html=1;rounded=0;fillColor=#f8cecc;strokeColor=#b85450;" edge="1" parent="1">
          <mxGeometry width="50" height="50" relative="1" as="geometry">
            <mxPoint x="130" y="500" as="sourcePoint" />
            <mxPoint x="180" y="450" as="targetPoint" />
          </mxGeometry>
        </mxCell>
        <mxCell id="Co3uQQMz_Gz1IZ39Et4X-5" value="" style="endArrow=classic;html=1;rounded=0;" edge="1" parent="1">
          <mxGeometry width="50" height="50" relative="1" as="geometry">
            <mxPoint x="190" y="510" as="sourcePoint" />
            <mxPoint x="150" y="490" as="targetPoint" />
          </mxGeometry>
        </mxCell>
        <mxCell id="Co3uQQMz_Gz1IZ39Et4X-6" value="AXIS_Z" style="shape=flexArrow;endArrow=classic;html=1;rounded=0;fillColor=#dae8fc;strokeColor=#6c8ebf;" edge="1" parent="1">
          <mxGeometry width="50" height="50" relative="1" as="geometry">
            <mxPoint x="440" y="515" as="sourcePoint" />
            <mxPoint x="490" y="465" as="targetPoint" />
          </mxGeometry>
        </mxCell>
        <mxCell id="Co3uQQMz_Gz1IZ39Et4X-8" value="" style="endArrow=classic;html=1;rounded=0;exitX=1.278;exitY=0.149;exitDx=0;exitDy=0;exitPerimeter=0;" edge="1" parent="1" source="ol_gCKP81isXlxX4ogD6-15">
          <mxGeometry width="50" height="50" relative="1" as="geometry">
            <mxPoint x="200" y="520" as="sourcePoint" />
            <mxPoint x="460" y="500" as="targetPoint" />
          </mxGeometry>
        </mxCell>
      </root>
    </mxGraphModel>
  </diagram>
  <diagram id="m8sm5g3i6wBBxXn5AlT4" name="bridge">
    <mxGraphModel dx="1636" dy="883" grid="1" gridSize="10" guides="1" tooltips="1" connect="1" arrows="1" fold="1" page="1" pageScale="1" pageWidth="850" pageHeight="1100" math="0" shadow="0">
      <root>
        <mxCell id="0" />
        <mxCell id="1" parent="0" />
        <mxCell id="soZAt90YrOPMNLuHhTUG-1" value="Rigid body" style="ellipse;whiteSpace=wrap;html=1;aspect=fixed;" vertex="1" parent="1">
          <mxGeometry x="190" y="450" width="80" height="80" as="geometry" />
        </mxCell>
        <mxCell id="soZAt90YrOPMNLuHhTUG-2" value="Rigid Body" style="ellipse;whiteSpace=wrap;html=1;aspect=fixed;" vertex="1" parent="1">
          <mxGeometry x="100" y="260" width="80" height="80" as="geometry" />
        </mxCell>
        <mxCell id="soZAt90YrOPMNLuHhTUG-3" value="Rigid Body" style="ellipse;whiteSpace=wrap;html=1;aspect=fixed;" vertex="1" parent="1">
          <mxGeometry y="450" width="80" height="80" as="geometry" />
        </mxCell>
        <mxCell id="soZAt90YrOPMNLuHhTUG-4" value="Fixation" style="shape=flexArrow;endArrow=classic;startArrow=classic;html=1;rounded=0;exitX=0;exitY=1;exitDx=0;exitDy=0;entryX=1;entryY=0;entryDx=0;entryDy=0;" edge="1" parent="1" source="soZAt90YrOPMNLuHhTUG-2" target="soZAt90YrOPMNLuHhTUG-3">
          <mxGeometry width="100" height="100" relative="1" as="geometry">
            <mxPoint x="400" y="780" as="sourcePoint" />
            <mxPoint x="500" y="680" as="targetPoint" />
          </mxGeometry>
        </mxCell>
        <mxCell id="soZAt90YrOPMNLuHhTUG-6" value="Rigid body" style="ellipse;whiteSpace=wrap;html=1;aspect=fixed;" vertex="1" parent="1">
          <mxGeometry x="390" y="450" width="80" height="80" as="geometry" />
        </mxCell>
        <mxCell id="soZAt90YrOPMNLuHhTUG-7" value="Rigid Body" style="ellipse;whiteSpace=wrap;html=1;aspect=fixed;" vertex="1" parent="1">
          <mxGeometry x="290" y="260" width="80" height="80" as="geometry" />
        </mxCell>
        <mxCell id="soZAt90YrOPMNLuHhTUG-8" value="Fixation" style="shape=flexArrow;endArrow=classic;startArrow=classic;html=1;rounded=0;exitX=0;exitY=1;exitDx=0;exitDy=0;entryX=1;entryY=0;entryDx=0;entryDy=0;" edge="1" parent="1" source="soZAt90YrOPMNLuHhTUG-7" target="soZAt90YrOPMNLuHhTUG-1">
          <mxGeometry width="100" height="100" relative="1" as="geometry">
            <mxPoint x="400" y="800" as="sourcePoint" />
            <mxPoint x="400" y="670" as="targetPoint" />
          </mxGeometry>
        </mxCell>
        <mxCell id="soZAt90YrOPMNLuHhTUG-9" value="Fixation" style="shape=flexArrow;endArrow=classic;startArrow=classic;html=1;rounded=0;exitX=1;exitY=1;exitDx=0;exitDy=0;entryX=0;entryY=0;entryDx=0;entryDy=0;" edge="1" parent="1" source="soZAt90YrOPMNLuHhTUG-7" target="soZAt90YrOPMNLuHhTUG-6">
          <mxGeometry width="100" height="100" relative="1" as="geometry">
            <mxPoint x="320" y="780" as="sourcePoint" />
            <mxPoint x="520" y="400" as="targetPoint" />
          </mxGeometry>
        </mxCell>
        <mxCell id="soZAt90YrOPMNLuHhTUG-10" value="Fixation" style="shape=flexArrow;endArrow=classic;startArrow=classic;html=1;rounded=0;entryX=1;entryY=1;entryDx=0;entryDy=0;exitX=0;exitY=0;exitDx=0;exitDy=0;" edge="1" parent="1" source="soZAt90YrOPMNLuHhTUG-1" target="soZAt90YrOPMNLuHhTUG-2">
          <mxGeometry width="100" height="100" relative="1" as="geometry">
            <mxPoint x="320" y="300" as="sourcePoint" />
            <mxPoint x="470" y="930" as="targetPoint" />
          </mxGeometry>
        </mxCell>
        <mxCell id="soZAt90YrOPMNLuHhTUG-11" value="Fixation" style="shape=flexArrow;endArrow=classic;startArrow=classic;html=1;rounded=0;exitX=0;exitY=0.5;exitDx=0;exitDy=0;entryX=1;entryY=0.5;entryDx=0;entryDy=0;" edge="1" parent="1" source="soZAt90YrOPMNLuHhTUG-6" target="soZAt90YrOPMNLuHhTUG-1">
          <mxGeometry width="100" height="100" relative="1" as="geometry">
            <mxPoint x="40" y="1060" as="sourcePoint" />
            <mxPoint x="350" y="410" as="targetPoint" />
          </mxGeometry>
        </mxCell>
        <mxCell id="soZAt90YrOPMNLuHhTUG-13" value="Fixation" style="shape=flexArrow;endArrow=classic;startArrow=classic;html=1;rounded=0;entryX=1;entryY=0.5;entryDx=0;entryDy=0;exitX=0;exitY=0.5;exitDx=0;exitDy=0;" edge="1" parent="1" source="soZAt90YrOPMNLuHhTUG-1" target="soZAt90YrOPMNLuHhTUG-3">
          <mxGeometry width="100" height="100" relative="1" as="geometry">
            <mxPoint x="160" y="660" as="sourcePoint" />
            <mxPoint x="280" y="660" as="targetPoint" />
          </mxGeometry>
        </mxCell>
        <mxCell id="soZAt90YrOPMNLuHhTUG-15" value="Fixation" style="shape=flexArrow;endArrow=classic;startArrow=classic;html=1;rounded=0;exitX=0;exitY=0.5;exitDx=0;exitDy=0;entryX=1;entryY=0.5;entryDx=0;entryDy=0;" edge="1" parent="1" source="soZAt90YrOPMNLuHhTUG-7" target="soZAt90YrOPMNLuHhTUG-2">
          <mxGeometry width="100" height="100" relative="1" as="geometry">
            <mxPoint x="435" y="500" as="sourcePoint" />
            <mxPoint x="330" y="500" as="targetPoint" />
          </mxGeometry>
        </mxCell>
        <mxCell id="9TQiAxVoMbU9yS8WQTGX-6" style="edgeStyle=orthogonalEdgeStyle;rounded=0;orthogonalLoop=1;jettySize=auto;html=1;exitX=1;exitY=0;exitDx=0;exitDy=0;" edge="1" parent="1" source="9TQiAxVoMbU9yS8WQTGX-1">
          <mxGeometry relative="1" as="geometry">
            <mxPoint x="180" y="410.1627906976745" as="targetPoint" />
          </mxGeometry>
        </mxCell>
        <mxCell id="9TQiAxVoMbU9yS8WQTGX-7" style="edgeStyle=orthogonalEdgeStyle;rounded=0;orthogonalLoop=1;jettySize=auto;html=1;exitX=0.5;exitY=1;exitDx=0;exitDy=0;" edge="1" parent="1" source="9TQiAxVoMbU9yS8WQTGX-1">
          <mxGeometry relative="1" as="geometry">
            <mxPoint x="135.11627906976753" y="480" as="targetPoint" />
          </mxGeometry>
        </mxCell>
        <mxCell id="9TQiAxVoMbU9yS8WQTGX-8" style="edgeStyle=orthogonalEdgeStyle;rounded=0;orthogonalLoop=1;jettySize=auto;html=1;exitX=0;exitY=0;exitDx=0;exitDy=0;" edge="1" parent="1" source="9TQiAxVoMbU9yS8WQTGX-1">
          <mxGeometry relative="1" as="geometry">
            <mxPoint x="90" y="410.1627906976745" as="targetPoint" />
          </mxGeometry>
        </mxCell>
        <mxCell id="9TQiAxVoMbU9yS8WQTGX-1" value="Joint #1" style="ellipse;whiteSpace=wrap;html=1;aspect=fixed;strokeWidth=6;strokeColor=#B5739D;" vertex="1" parent="1">
          <mxGeometry x="100" y="400" width="70" height="70" as="geometry" />
        </mxCell>
        <mxCell id="9TQiAxVoMbU9yS8WQTGX-3" style="edgeStyle=orthogonalEdgeStyle;rounded=0;orthogonalLoop=1;jettySize=auto;html=1;exitX=0.5;exitY=1;exitDx=0;exitDy=0;" edge="1" parent="1" source="9TQiAxVoMbU9yS8WQTGX-2">
          <mxGeometry relative="1" as="geometry">
            <mxPoint x="335.1162790697674" y="480" as="targetPoint" />
          </mxGeometry>
        </mxCell>
        <mxCell id="9TQiAxVoMbU9yS8WQTGX-4" style="edgeStyle=orthogonalEdgeStyle;rounded=0;orthogonalLoop=1;jettySize=auto;html=1;exitX=0;exitY=0;exitDx=0;exitDy=0;" edge="1" parent="1" source="9TQiAxVoMbU9yS8WQTGX-2">
          <mxGeometry relative="1" as="geometry">
            <mxPoint x="290" y="400.1627906976745" as="targetPoint" />
          </mxGeometry>
        </mxCell>
        <mxCell id="9TQiAxVoMbU9yS8WQTGX-5" style="edgeStyle=orthogonalEdgeStyle;rounded=0;orthogonalLoop=1;jettySize=auto;html=1;exitX=1;exitY=0;exitDx=0;exitDy=0;" edge="1" parent="1" source="9TQiAxVoMbU9yS8WQTGX-2">
          <mxGeometry relative="1" as="geometry">
            <mxPoint x="370" y="380" as="targetPoint" />
          </mxGeometry>
        </mxCell>
        <mxCell id="9TQiAxVoMbU9yS8WQTGX-2" value="Joint #2" style="ellipse;whiteSpace=wrap;html=1;aspect=fixed;strokeWidth=6;strokeColor=#B5739D;" vertex="1" parent="1">
          <mxGeometry x="300" y="390" width="70" height="70" as="geometry" />
        </mxCell>
        <mxCell id="9TQiAxVoMbU9yS8WQTGX-10" style="edgeStyle=orthogonalEdgeStyle;rounded=0;orthogonalLoop=1;jettySize=auto;html=1;exitX=0.5;exitY=1;exitDx=0;exitDy=0;" edge="1" parent="1" source="9TQiAxVoMbU9yS8WQTGX-9">
          <mxGeometry relative="1" as="geometry">
            <mxPoint x="245.11627906976742" y="290" as="targetPoint" />
          </mxGeometry>
        </mxCell>
        <mxCell id="9TQiAxVoMbU9yS8WQTGX-9" value="Joint #3" style="ellipse;whiteSpace=wrap;html=1;aspect=fixed;strokeWidth=6;strokeColor=#B5739D;" vertex="1" parent="1">
          <mxGeometry x="210" y="200" width="70" height="70" as="geometry" />
        </mxCell>
      </root>
    </mxGraphModel>
  </diagram>
  <diagram id="oiYUaBAtKwfAQszJ252G" name="translational_joint">
    <mxGraphModel dx="1118" dy="604" grid="1" gridSize="10" guides="1" tooltips="1" connect="1" arrows="1" fold="1" page="1" pageScale="1" pageWidth="850" pageHeight="1100" math="0" shadow="0">
      <root>
        <mxCell id="0" />
        <mxCell id="1" parent="0" />
        <mxCell id="P45tgWmjM3nFIdnggCva-1" value="Prismatic joint" style="ellipse;whiteSpace=wrap;html=1;aspect=fixed;" vertex="1" parent="1">
          <mxGeometry x="385" y="410" width="80" height="80" as="geometry" />
        </mxCell>
        <mxCell id="P45tgWmjM3nFIdnggCva-2" value="Rigid body - parent" style="rounded=0;whiteSpace=wrap;html=1;" vertex="1" parent="1">
          <mxGeometry x="378" y="290" width="95" height="60" as="geometry" />
        </mxCell>
        <mxCell id="P45tgWmjM3nFIdnggCva-3" value="Rigid body - target #1" style="rounded=0;whiteSpace=wrap;html=1;" vertex="1" parent="1">
          <mxGeometry x="385.25" y="550" width="80.5" height="60" as="geometry" />
        </mxCell>
        <mxCell id="P45tgWmjM3nFIdnggCva-4" value="Prismatic" style="rounded=1;whiteSpace=wrap;html=1;" vertex="1" parent="1">
          <mxGeometry x="500" y="360" width="120" height="30" as="geometry" />
        </mxCell>
        <mxCell id="P45tgWmjM3nFIdnggCva-5" value="Rigid body - target #N" style="rounded=0;whiteSpace=wrap;html=1;" vertex="1" parent="1">
          <mxGeometry x="500" y="550" width="70" height="60" as="geometry" />
        </mxCell>
        <mxCell id="P45tgWmjM3nFIdnggCva-6" value="..." style="text;html=1;align=center;verticalAlign=middle;whiteSpace=wrap;rounded=0;" vertex="1" parent="1">
          <mxGeometry x="450" y="565" width="60" height="30" as="geometry" />
        </mxCell>
        <mxCell id="P45tgWmjM3nFIdnggCva-8" value="Fixation (relative to)" style="shape=flexArrow;endArrow=classic;startArrow=classic;html=1;rounded=0;entryX=0.5;entryY=0;entryDx=0;entryDy=0;exitX=0.5;exitY=1;exitDx=0;exitDy=0;" edge="1" parent="1" source="P45tgWmjM3nFIdnggCva-2" target="P45tgWmjM3nFIdnggCva-1">
          <mxGeometry width="100" height="100" relative="1" as="geometry">
            <mxPoint x="180" y="420" as="sourcePoint" />
            <mxPoint x="280" y="320" as="targetPoint" />
          </mxGeometry>
        </mxCell>
        <mxCell id="P45tgWmjM3nFIdnggCva-9" value="Effect" style="shape=flexArrow;endArrow=classic;html=1;rounded=0;exitX=0.525;exitY=1.029;exitDx=0;exitDy=0;entryX=0.5;entryY=0;entryDx=0;entryDy=0;exitPerimeter=0;" edge="1" parent="1" source="P45tgWmjM3nFIdnggCva-1" target="P45tgWmjM3nFIdnggCva-3">
          <mxGeometry width="50" height="50" relative="1" as="geometry">
            <mxPoint x="510" y="400" as="sourcePoint" />
            <mxPoint x="560" y="350" as="targetPoint" />
          </mxGeometry>
        </mxCell>
        <mxCell id="P45tgWmjM3nFIdnggCva-10" value="Effect" style="shape=flexArrow;endArrow=classic;html=1;rounded=0;exitX=1;exitY=1;exitDx=0;exitDy=0;entryX=0.25;entryY=0;entryDx=0;entryDy=0;" edge="1" parent="1" source="P45tgWmjM3nFIdnggCva-1" target="P45tgWmjM3nFIdnggCva-5">
          <mxGeometry width="50" height="50" relative="1" as="geometry">
            <mxPoint x="475" y="460" as="sourcePoint" />
            <mxPoint x="530" y="460" as="targetPoint" />
          </mxGeometry>
        </mxCell>
        <mxCell id="P45tgWmjM3nFIdnggCva-11" value="" style="shape=flexArrow;endArrow=classic;html=1;rounded=0;exitX=1;exitY=0;exitDx=0;exitDy=0;entryX=0;entryY=0.5;entryDx=0;entryDy=0;" edge="1" parent="1" source="P45tgWmjM3nFIdnggCva-1" target="P45tgWmjM3nFIdnggCva-4">
          <mxGeometry width="50" height="50" relative="1" as="geometry">
            <mxPoint x="520" y="340" as="sourcePoint" />
            <mxPoint x="570" y="290" as="targetPoint" />
          </mxGeometry>
        </mxCell>
        <mxCell id="P45tgWmjM3nFIdnggCva-12" value="AXIS_X" style="rounded=1;whiteSpace=wrap;html=1;" vertex="1" parent="1">
          <mxGeometry x="510" y="450" width="120" height="30" as="geometry" />
        </mxCell>
        <mxCell id="P45tgWmjM3nFIdnggCva-13" value="" style="shape=flexArrow;endArrow=classic;html=1;rounded=0;exitX=1;exitY=0.5;exitDx=0;exitDy=0;entryX=0;entryY=0.5;entryDx=0;entryDy=0;" edge="1" parent="1" source="P45tgWmjM3nFIdnggCva-1" target="P45tgWmjM3nFIdnggCva-12">
          <mxGeometry width="50" height="50" relative="1" as="geometry">
            <mxPoint x="407" y="432" as="sourcePoint" />
            <mxPoint x="380" y="380" as="targetPoint" />
          </mxGeometry>
        </mxCell>
      </root>
    </mxGraphModel>
  </diagram>
  <diagram id="92rqM-dvqlM9NKinoWvT" name="spherical_joint">
    <mxGraphModel dx="3354" dy="1811" grid="1" gridSize="10" guides="1" tooltips="1" connect="1" arrows="1" fold="1" page="1" pageScale="1" pageWidth="850" pageHeight="1100" math="0" shadow="0">
      <root>
        <mxCell id="0" />
        <mxCell id="1" parent="0" />
        <mxCell id="6O_sFSDzhq_kPa7iC39w-1" value="Revolute joint (Spherical)" style="ellipse;whiteSpace=wrap;html=1;aspect=fixed;" parent="1" vertex="1">
          <mxGeometry x="385" y="410" width="80" height="80" as="geometry" />
        </mxCell>
        <mxCell id="6O_sFSDzhq_kPa7iC39w-2" value="Rigid body - parent" style="rounded=0;whiteSpace=wrap;html=1;" parent="1" vertex="1">
          <mxGeometry x="378" y="290" width="95" height="60" as="geometry" />
        </mxCell>
        <mxCell id="6O_sFSDzhq_kPa7iC39w-3" value="Rigid body - target #1" style="rounded=0;whiteSpace=wrap;html=1;" parent="1" vertex="1">
          <mxGeometry x="385.25" y="550" width="80.5" height="60" as="geometry" />
        </mxCell>
        <mxCell id="6O_sFSDzhq_kPa7iC39w-4" value="Revolute constraint" style="rounded=1;whiteSpace=wrap;html=1;" parent="1" vertex="1">
          <mxGeometry x="520" y="360" width="120" height="30" as="geometry" />
        </mxCell>
        <mxCell id="6O_sFSDzhq_kPa7iC39w-5" value="Rigid body - target #N" style="rounded=0;whiteSpace=wrap;html=1;" parent="1" vertex="1">
          <mxGeometry x="500" y="550" width="70" height="60" as="geometry" />
        </mxCell>
        <mxCell id="6O_sFSDzhq_kPa7iC39w-6" value="..." style="text;html=1;align=center;verticalAlign=middle;whiteSpace=wrap;rounded=0;" parent="1" vertex="1">
          <mxGeometry x="450" y="565" width="60" height="30" as="geometry" />
        </mxCell>
        <mxCell id="6O_sFSDzhq_kPa7iC39w-7" value="Fixation (relative to)" style="shape=flexArrow;endArrow=classic;startArrow=classic;html=1;rounded=0;entryX=0.5;entryY=0;entryDx=0;entryDy=0;exitX=0.5;exitY=1;exitDx=0;exitDy=0;" parent="1" source="6O_sFSDzhq_kPa7iC39w-2" target="6O_sFSDzhq_kPa7iC39w-1" edge="1">
          <mxGeometry width="100" height="100" relative="1" as="geometry">
            <mxPoint x="180" y="420" as="sourcePoint" />
            <mxPoint x="280" y="320" as="targetPoint" />
          </mxGeometry>
        </mxCell>
        <mxCell id="6O_sFSDzhq_kPa7iC39w-8" value="Effect" style="shape=flexArrow;endArrow=classic;html=1;rounded=0;exitX=0.525;exitY=1.029;exitDx=0;exitDy=0;entryX=0.5;entryY=0;entryDx=0;entryDy=0;exitPerimeter=0;" parent="1" source="6O_sFSDzhq_kPa7iC39w-1" target="6O_sFSDzhq_kPa7iC39w-3" edge="1">
          <mxGeometry width="50" height="50" relative="1" as="geometry">
            <mxPoint x="510" y="400" as="sourcePoint" />
            <mxPoint x="560" y="350" as="targetPoint" />
          </mxGeometry>
        </mxCell>
        <mxCell id="6O_sFSDzhq_kPa7iC39w-9" value="Effect" style="shape=flexArrow;endArrow=classic;html=1;rounded=0;exitX=1;exitY=1;exitDx=0;exitDy=0;entryX=0.25;entryY=0;entryDx=0;entryDy=0;" parent="1" source="6O_sFSDzhq_kPa7iC39w-1" target="6O_sFSDzhq_kPa7iC39w-5" edge="1">
          <mxGeometry width="50" height="50" relative="1" as="geometry">
            <mxPoint x="475" y="460" as="sourcePoint" />
            <mxPoint x="530" y="460" as="targetPoint" />
          </mxGeometry>
        </mxCell>
        <mxCell id="6O_sFSDzhq_kPa7iC39w-10" value="" style="shape=flexArrow;endArrow=classic;html=1;rounded=0;exitX=1;exitY=0;exitDx=0;exitDy=0;entryX=0;entryY=0.5;entryDx=0;entryDy=0;" parent="1" source="6O_sFSDzhq_kPa7iC39w-1" target="6O_sFSDzhq_kPa7iC39w-4" edge="1">
          <mxGeometry width="50" height="50" relative="1" as="geometry">
            <mxPoint x="520" y="340" as="sourcePoint" />
            <mxPoint x="570" y="290" as="targetPoint" />
          </mxGeometry>
        </mxCell>
        <mxCell id="6O_sFSDzhq_kPa7iC39w-11" value="AXIS_Z" style="rounded=1;whiteSpace=wrap;html=1;" parent="1" vertex="1">
          <mxGeometry x="520" y="435" width="120" height="30" as="geometry" />
        </mxCell>
        <mxCell id="6O_sFSDzhq_kPa7iC39w-12" value="" style="shape=flexArrow;endArrow=classic;html=1;rounded=0;exitX=1;exitY=0.5;exitDx=0;exitDy=0;entryX=0;entryY=0.5;entryDx=0;entryDy=0;" parent="1" source="6O_sFSDzhq_kPa7iC39w-1" target="6O_sFSDzhq_kPa7iC39w-11" edge="1">
          <mxGeometry width="50" height="50" relative="1" as="geometry">
            <mxPoint x="407" y="432" as="sourcePoint" />
            <mxPoint x="380" y="380" as="targetPoint" />
          </mxGeometry>
        </mxCell>
        <mxCell id="6O_sFSDzhq_kPa7iC39w-13" value="AXIS_X" style="rounded=1;whiteSpace=wrap;html=1;" parent="1" vertex="1">
          <mxGeometry x="520" y="470" width="120" height="30" as="geometry" />
        </mxCell>
        <mxCell id="6O_sFSDzhq_kPa7iC39w-14" value="" style="shape=flexArrow;endArrow=classic;html=1;rounded=0;entryX=0;entryY=0.5;entryDx=0;entryDy=0;" parent="1" source="6O_sFSDzhq_kPa7iC39w-1" target="6O_sFSDzhq_kPa7iC39w-13" edge="1">
          <mxGeometry width="50" height="50" relative="1" as="geometry">
            <mxPoint x="475" y="460" as="sourcePoint" />
            <mxPoint x="530" y="460" as="targetPoint" />
          </mxGeometry>
        </mxCell>
      </root>
    </mxGraphModel>
  </diagram>
  <diagram id="XMJetU_vd9P60PM7psvm" name="Page-5">
    <mxGraphModel dx="2963" dy="1247" grid="1" gridSize="10" guides="1" tooltips="1" connect="1" arrows="1" fold="1" page="1" pageScale="1" pageWidth="850" pageHeight="1100" math="0" shadow="0">
      <root>
        <mxCell id="0" />
        <mxCell id="1" parent="0" />
        <mxCell id="dCx_wY1wJ-MxOwq4zV9K-21" value="" style="shape=image;verticalLabelPosition=bottom;labelBackgroundColor=default;verticalAlign=top;aspect=fixed;imageAspect=0;image=data:image/png,iVBORw0KGgoAAAANSUhEUgAAAoAAAAHgCAYAAAA10dzkAAAAOXRFWHRTb2Z0d2FyZQBNYXRwbG90bGliIHZlcnNpb24zLjkuMiwgaHR0cHM6Ly9tYXRwbG90bGliLm9yZy8hTgPZAAAACXBIWXMAAA9hAAAPYQGoP6dpAAAJAUlEQVR4nO3YwW3DQBAEQZ/BwJn5KgN/ZGlBdFUE82zMmZn5AQAg43d7AAAA3yUAAQBiBCAAQIwABACIEYAAADECEAAgRgACAMQIQACAGAEIABAjAAEAYgQgAECMAAQAiBGAAAAxAhAAIEYAAgDECEAAgBgBCAAQIwABAGIEIABAjAAEAIgRgAAAMQIQACBGAAIAxAhAAIAYAQgAECMAAQBiBCAAQIwABACIEYAAADECEAAgRgACAMQIQACAGAEIABAjAAEAYgQgAECMAAQAiBGAAAAxAhAAIEYAAgDECEAAgBgBCAAQIwABAGIEIABAjAAEAIgRgAAAMQIQACBGAAIAxAhAAIAYAQgAECMAAQBiBCAAQIwABACIEYAAADECEAAgRgACAMQIQACAGAEIABBzbQ/guc7ZXgDAO2a2F7DFAwgAECMAAQBiBCAAQIwABACIEYAAADECEAAgRgACAMQIQACAGAEIABAjAAEAYgQgAECMAAQAiBGAAAAxAhAAIEYAAgDECEAAgBgBCAAQIwABAGIEIABAjAAEAIgRgAAAMQIQACBGAAIAxAhAAIAYAQgAECMAAQBiBCAAQIwABACIEYAAADECEAAgRgACAMQIQACAGAEIABAjAAEAYgQgAECMAAQAiBGAAAAxAhAAIEYAAgDECEAAgBgBCAAQIwABAGIEIABAjAAEAIgRgAAAMQIQACBGAAIAxAhAAIAYAQgAECMAAQBiBCAAQIwABACIEYAAADECEAAgRgACAMQIQACAGAEIABAjAAEAYgQgAECMAAQAiBGAAAAxAhAAIEYAAgDECEAAgBgBCAAQIwABAGIEIABAjAAEAIgRgAAAMQIQACBGAAIAxAhAAIAYAQgAECMAAQBiBCAAQIwABACIEYAAADECEAAgRgACAMQIQACAGAEIABAjAAEAYgQgAECMAAQAiBGAAAAxAhAAIEYAAgDECEAAgBgBCAAQIwABAGIEIABAjAAEAIgRgAAAMQIQACBGAAIAxAhAAIAYAQgAECMAAQBiBCAAQIwABACIEYAAADECEAAgRgACAMQIQACAGAEIABAjAAEAYgQgAECMAAQAiBGAAAAxAhAAIEYAAgDECEAAgBgBCAAQIwABAGIEIABAjAAEAIgRgAAAMQIQACBGAAIAxAhAAIAYAQgAECMAAQBiBCAAQIwABACIEYAAADECEAAgRgACAMQIQACAGAEIABAjAAEAYgQgAECMAAQAiBGAAAAxAhAAIEYAAgDECEAAgBgBCAAQIwABAGIEIABAjAAEAIgRgAAAMQIQACBGAAIAxAhAAIAYAQgAECMAAQBiBCAAQIwABACIEYAAADECEAAgRgACAMQIQACAGAEIABAjAAEAYgQgAECMAAQAiBGAAAAxAhAAIEYAAgDECEAAgBgBCAAQIwABAGIEIABAjAAEAIgRgAAAMQIQACBGAAIAxAhAAIAYAQgAECMAAQBiBCAAQIwABACIEYAAADECEAAgRgACAMQIQACAGAEIABAjAAEAYgQgAECMAAQAiBGAAAAxAhAAIEYAAgDECEAAgBgBCAAQIwABAGIEIABAjAAEAIgRgAAAMQIQACBGAAIAxAhAAIAYAQgAECMAAQBiBCAAQIwABACIEYAAADECEAAgRgACAMQIQACAGAEIABAjAAEAYgQgAECMAAQAiBGAAAAxAhAAIEYAAgDECEAAgBgBCAAQc20PAIBHmHt7wQfc2wNY4gEEAIgRgAAAMQIQACBGAAIAxAhAAIAYAQgAECMAAQBiBCAAQIwABACIEYAAADECEAAgRgACAMQIQACAGAEIABAjAAEAYgQgAECMAAQAiBGAAAAxAhAAIEYAAgDECEAAgBgBCAAQIwABAGIEIABAjAAEAIgRgAAAMQIQACBGAAIAxAhAAIAYAQgAECMAAQBiBCAAQIwABACIEYAAADECEAAgRgACAMQIQACAGAEIABAjAAEAYgQgAECMAAQAiBGAAAAxAhAAIEYAAgDECEAAgBgBCAAQIwABAGIEIABAjAAEAIgRgAAAMQIQACBGAAIAxJyZme0RPNM52wsAeIcC6PIAAgDECEAAgBgBCAAQIwABAGIEIABAjAAEAIgRgAAAMQIQACBGAAIAxAhAAIAYAQgAECMAAQBiBCAAQIwABACIEYAAADECEAAgRgACAMQIQACAGAEIABAjAAEAYgQgAECMAAQAiBGAAAAxAhAAIEYAAgDECEAAgBgBCAAQIwABAGIEIABAjAAEAIgRgAAAMQIQACBGAAIAxAhAAIAYAQgAECMAAQBiBCAAQIwABACIEYAAADECEAAgRgACAMQIQACAGAEIABAjAAEAYgQgAECMAAQAiBGAAAAxAhAAIEYAAgDECEAAgBgBCAAQIwABAGKu7QEAeXNvL/h/595eAPzBAwgAECMAAQBiBCAAQIwABACIEYAAADECEAAgRgACAMQIQACAGAEIABAjAAEAYgQgAECMAAQAiBGAAAAxAhAAIEYAAgDECEAAgBgBCAAQIwABAGIEIABAjAAEAIgRgAAAMQIQACBGAAIAxAhAAIAYAQgAECMAAQBiBCAAQIwABACIEYAAADECEAAgRgACAMQIQACAGAEIABAjAAEAYgQgAECMAAQAiBGAAAAxAhAAIEYAAgDECEAAgBgBCAAQIwABAGIEIABAjAAEAIgRgAAAMQIQACBGAAIAxAhAAIAYAQgAECMAAQBiBCAAQIwABACIOTMz2yMAAPgeDyAAQIwABACIEYAAADECEAAgRgACAMQIQACAGAEIABAjAAEAYgQgAECMAAQAiBGAAAAxAhAAIEYAAgDECEAAgBgBCAAQIwABAGIEIABAjAAEAIgRgAAAMQIQACBGAAIAxAhAAIAYAQgAECMAAQBiBCAAQIwABACIEYAAADECEAAgRgACAMQIQACAGAEIABAjAAEAYgQgAECMAAQAiBGAAAAxAhAAIEYAAgDECEAAgBgBCAAQIwABAGIEIABAjAAEAIgRgAAAMQIQACBGAAIAxAhAAIAYAQgAECMAAQBiBCAAQIwABACIEYAAADECEAAg5gVPQRe34aIw5wAAAABJRU5ErkJggg==;clipPath=inset(12.22% 20.33% 10.44% 21.67%);opacity=70;" vertex="1" parent="1">
          <mxGeometry x="360" y="800.55" width="480" height="480" as="geometry" />
        </mxCell>
        <mxCell id="dCx_wY1wJ-MxOwq4zV9K-4" value="" style="shape=image;verticalLabelPosition=bottom;labelBackgroundColor=default;verticalAlign=top;aspect=fixed;imageAspect=0;image=data:image/png,iVBORw0KGgoAAAANSUhEUgAAAoAAAAHgCAYAAAA10dzkAAAAOXRFWHRTb2Z0d2FyZQBNYXRwbG90bGliIHZlcnNpb24zLjkuMiwgaHR0cHM6Ly9tYXRwbG90bGliLm9yZy8hTgPZAAAACXBIWXMAAA9hAAAPYQGoP6dpAAAJOklEQVR4nO3YwW1bURAEwf+MH43iUUAMSPEonfVBGZgAV3RXRTDHxpyZmQsAgIw/2wMAAHgtAQgAECMAAQBiBCAAQIwABACIEYAAADECEAAgRgACAMQIQACAGAEIABAjAAEAYgQgAECMAAQAiBGAAAAxAhAAIEYAAgDECEAAgBgBCAAQIwABAGIEIABAjAAEAIgRgAAAMQIQACBGAAIAxAhAAIAYAQgAECMAAQBiBCAAQIwABACIEYAAADECEAAgRgACAMQIQACAGAEIABAjAAEAYgQgAECMAAQAiBGAAAAxAhAAIEYAAgDECEAAgBgBCAAQIwABAGIEIABAjAAEAIgRgAAAMQIQACBGAAIAxAhAAIAYAQgAECMAAQBiBCAAQIwABACIEYAAADECEAAgRgACAMQIQACAmHt7AO/rnO0FADxjZnsBWzyAAAAxAhAAIEYAAgDECEAAgBgBCAAQIwABAGIEIABAjAAEAIgRgAAAMQIQACBGAAIAxAhAAIAYAQgAECMAAQBiBCAAQIwABACIEYAAADECEAAgRgACAMQIQACAGAEIABAjAAEAYgQgAECMAAQAiBGAAAAxAhAAIEYAAgDECEAAgBgBCAAQIwABAGIEIABAjAAEAIgRgAAAMQIQACBGAAIAxAhAAIAYAQgAECMAAQBiBCAAQIwABACIEYAAADECEAAgRgACAMQIQACAGAEIABAjAAEAYgQgAECMAAQAiBGAAAAxAhAAIEYAAgDECEAAgBgBCAAQIwABAGIEIABAjAAEAIgRgAAAMQIQACBGAAIAxAhAAIAYAQgAECMAAQBiBCAAQIwABACIEYAAADECEAAgRgACAMQIQACAGAEIABAjAAEAYgQgAECMAAQAiBGAAAAxAhAAIEYAAgDECEAAgBgBCAAQIwABAGIEIABAjAAEAIgRgAAAMQIQACBGAAIAxAhAAIAYAQgAECMAAQBiBCAAQIwABACIEYAAADECEAAgRgACAMQIQACAGAEIABAjAAEAYgQgAECMAAQAiBGAAAAxAhAAIEYAAgDECEAAgBgBCAAQIwABAGIEIABAjAAEAIgRgAAAMQIQACBGAAIAxAhAAIAYAQgAECMAAQBiBCAAQIwABACIEYAAADECEAAgRgACAMQIQACAGAEIABAjAAEAYgQgAECMAAQAiBGAAAAxAhAAIEYAAgDECEAAgBgBCAAQIwABAGIEIABAjAAEAIgRgAAAMQIQACBGAAIAxAhAAICYe3sAALzUPLYXXNd5bC8gzgMIABAjAAEAYgQgAECMAAQAiBGAAAAxAhAAIEYAAgDECEAAgBgBCAAQIwABAGIEIABAjAAEAIgRgAAAMQIQACBGAAIAxAhAAIAYAQgAECMAAQBiBCAAQIwABACIEYAAADECEAAgRgACAMQIQACAGAEIABAjAAEAYgQgAECMAAQAiBGAAAAxAhAAIEYAAgDECEAAgBgBCAAQc2Zmtkfwns7ZXgDAMxRAlwcQACBGAAIAxAhAAIAYAQgAECMAAQBiBCAAQIwABACIEYAAADECEAAgRgACAMQIQACAGAEIABAjAAEAYgQgAECMAAQAiBGAAAAxAhAAIEYAAgDECEAAgBgBCAAQIwABAGIEIABAjAAEAIgRgAAAMQIQACBGAAIAxAhAAIAYAQgAECMAAQBiBCAAQIwABACIEYAAADECEAAg5t4eAAAv9fm9veC6vj62FxDnAQQAiBGAAAAxAhAAIEYAAgDECEAAgBgBCAAQIwABAGIEIABAjAAEAIgRgAAAMQIQACBGAAIAxAhAAIAYAQgAECMAAQBiBCAAQIwABACIEYAAADECEAAgRgACAMQIQACAGAEIABAjAAEAYgQgAECMAAQAiBGAAAAxAhAAIEYAAgDECEAAgBgBCAAQIwABAGIEIABAzJmZ2R7BezpnewEAz1AAXR5AAIAYAQgAECMAAQBiBCAAQIwABACIEYAAADECEAAgRgACAMQIQACAGAEIABAjAAEAYgQgAECMAAQAiBGAAAAxAhAAIEYAAgDECEAAgBgBCAAQIwABAGIEIABAjAAEAIgRgAAAMQIQACBGAAIAxAhAAIAYAQgAECMAAQBiBCAAQIwABACIEYAAADECEAAgRgACAMQIQACAGAEIABAjAAEAYgQgAECMAAQAiBGAAAAxAhAAIEYAAgDECEAAgBgBCAAQIwABAGIEIABAjAAEAIgRgAAAMQIQACBGAAIAxAhAAIAYAQgAECMAAQBiBCAAQIwABACIEYAAADECEAAgRgACAMQIQACAGAEIABAjAAEAYgQgAECMAAQAiBGAAAAxAhAAIEYAAgDECEAAgBgBCAAQIwABAGLu7QHAf2Ye2wt+nMf2gh+f39sLruvrY3sB8Mt4AAEAYgQgAECMAAQAiBGAAAAxAhAAIEYAAgDECEAAgBgBCAAQIwABAGIEIABAjAAEAIgRgAAAMQIQACBGAAIAxAhAAIAYAQgAECMAAQBiBCAAQIwABACIEYAAADECEAAgRgACAMQIQACAGAEIABAjAAEAYgQgAECMAAQAiBGAAAAxAhAAIEYAAgDECEAAgBgBCAAQc2Zmtkfwns7ZXgDAMxRAlwcQACBGAAIAxAhAAIAYAQgAECMAAQBiBCAAQIwABACIEYAAADECEAAgRgACAMQIQACAGAEIABAjAAEAYgQgAECMAAQAiBGAAAAxAhAAIEYAAgDECEAAgBgBCAAQIwABAGIEIABAjAAEAIgRgAAAMQIQACBGAAIAxAhAAIAYAQgAECMAAQBiBCAAQIwABACIEYAAADECEAAg5t4ewPua2V4AAPwLDyAAQIwABACIEYAAADECEAAgRgACAMQIQACAGAEIABAjAAEAYgQgAECMAAQAiBGAAAAxAhAAIEYAAgDECEAAgBgBCAAQIwABAGIEIABAjAAEAIgRgAAAMQIQACBGAAIAxAhAAIAYAQgAECMAAQBiBCAAQIwABACIEYAAADECEAAgRgACAMQIQACAGAEIABAjAAEAYgQgAECMAAQAiBGAAAAxAhAAIEYAAgDECEAAgBgBCAAQIwABAGIEIABAjAAEAIgRgAAAMQIQACBGAAIAxAhAAIAYAQgAECMAAQBiBCAAQIwABACIEYAAADECEAAg5i9RMCW19R++rwAAAABJRU5ErkJggg==;clipPath=inset(11.78% 20% 11.33% 22%);opacity=50;" vertex="1" parent="1">
          <mxGeometry x="670" y="210" width="280" height="278.39" as="geometry" />
        </mxCell>
        <mxCell id="dCx_wY1wJ-MxOwq4zV9K-3" value="" style="shape=image;verticalLabelPosition=bottom;labelBackgroundColor=default;verticalAlign=top;aspect=fixed;imageAspect=0;image=data:image/png,iVBORw0KGgoAAAANSUhEUgAAAoAAAAHgCAYAAAA10dzkAAAAOXRFWHRTb2Z0d2FyZQBNYXRwbG90bGliIHZlcnNpb24zLjkuMiwgaHR0cHM6Ly9tYXRwbG90bGliLm9yZy8hTgPZAAAACXBIWXMAAA9hAAAPYQGoP6dpAAAJT0lEQVR4nO3YQXFUURRF0f+othATYCCeGMRCLOAqBsAEIi6DxEFX5abZayk4w13nzMxcAABkfNseAADA5xKAAAAxAhAAIEYAAgDECEAAgBgBCAAQIwABAGIEIABAjAAEAIgRgAAAMQIQACBGAAIAxAhAAIAYAQgAECMAAQBiBCAAQIwABACIEYAAADECEAAgRgACAMQIQACAGAEIABAjAAEAYgQgAECMAAQAiBGAAAAxAhAAIEYAAgDECEAAgBgBCAAQIwABAGIEIABAjAAEAIgRgAAAMQIQACBGAAIAxAhAAIAYAQgAECMAAQBiBCAAQIwABACIEYAAADECEAAgRgACAMQIQACAGAEIABAjAAEAYgQgAECMAAQAiBGAAAAxAhAAIEYAAgDECEAAgBgBCAAQIwABAGIEIABAjAAEAIi5bQ/gcZ2zvQCAe8xsL2CLBxAAIEYAAgDECEAAgBgBCAAQIwABAGIEIABAjAAEAIgRgAAAMQIQACBGAAIAxAhAAIAYAQgAECMAAQBiBCAAQIwABACIEYAAADECEAAgRgACAMQIQACAGAEIABAjAAEAYgQgAECMAAQAiBGAAAAxAhAAIEYAAgDECEAAgBgBCAAQIwABAGIEIABAjAAEAIgRgAAAMQIQACBGAAIAxAhAAIAYAQgAECMAAQBiBCAAQIwABACIEYAAADECEAAgRgACAMQIQACAGAEIABAjAAEAYgQgAECMAAQAiBGAAAAxAhAAIEYAAgDECEAAgBgBCAAQIwABAGIEIABAjAAEAIgRgAAAMQIQACBGAAIAxAhAAIAYAQgAECMAAQBiBCAAQIwABACIEYAAADECEAAg5rY9AAByXt62F3x43h7AEg8gAECMAAQAiBGAAAAxAhAAIEYAAgDECEAAgBgBCAAQIwABAGIEIABAjAAEAIgRgAAAMQIQACBGAAIAxAhAAIAYAQgAECMAAQBiBCAAQIwABACIEYAAADECEAAgRgACAMQIQACAGAEIABAjAAEAYgQgAECMAAQAiBGAAAAxAhAAIEYAAgDECEAAgBgBCAAQIwABAGIEIABAzJmZ2R7BYzpnewEA91AAXR5AAIAYAQgAECMAAQBiBCAAQIwABACIEYAAADECEAAgRgACAMQIQACAGAEIABAjAAEAYgQgAECMAAQAiBGAAAAxAhAAIEYAAgDECEAAgBgBCAAQIwABAGIEIABAjAAEAIgRgAAAMQIQACBGAAIAxAhAAIAYAQgAECMAAQBiBCAAQIwABACIEYAAADECEAAgRgACAMQIQACAGAEIABAjAAEAYgQgAECMAAQAiBGAAAAxAhAAIEYAAgDECEAAgBgBCAAQIwABAGIEIABAjAAEAIgRgAAAMQIQACBGAAIAxAhAAIAYAQgAECMAAQBiBCAAQIwABACIEYAAADECEAAgRgACAMQIQACAGAEIABAjAAEAYgQgAECMAAQAiBGAAAAxAhAAIEYAAgDECEAAgBgBCAAQc9seAAA587q94MPr9gCWeAABAGIEIABAjAAEAIgRgAAAMQIQACBGAAIAxAhAAIAYAQgAECMAAQBiBCAAQIwABACIEYAAADECEAAgRgACAMQIQACAGAEIABAjAAEAYgQgAECMAAQAiBGAAAAxAhAAIEYAAgDECEAAgBgBCAAQIwABAGIEIABAjAAEAIgRgAAAMQIQACBGAAIAxAhAAIAYAQgAECMAAQBizszM9gge0znbCwAe1Pe/2wuu67qu+f20PYElHkAAgBgBCAAQIwABAGIEIABAjAAEAIgRgAAAMQIQACBGAAIAxAhAAIAYAQgAECMAAQBiBCAAQIwABACIEYAAADECEAAgRgACAMQIQACAGAEIABAjAAEAYgQgAECMAAQAiBGAAAAxAhAAIEYAAgDECEAAgBgBCAAQIwABAGIEIABAjAAEAIgRgAAAMQIQACBGAAIAxJyZme0RPKZzthcAcA8F0OUBBACIEYAAADECEAAgRgACAMQIQACAGAEIABAjAAEAYgQgAECMAAQAiBGAAAAxAhAAIEYAAgDECEAAgBgBCAAQIwABAGIEIABAjAAEAIgRgAAAMQIQACBGAAIAxAhAAIAYAQgAECMAAQBiBCAAQIwABACIEYAAADECEAAgRgACAMQIQACAGAEIABAjAAEAYgQgAECMAAQAiBGAAAAxAhAAIEYAAgDECEAAgBgBCAAQIwABAGIEIABAjAAEAIgRgAAAMQIQACBGAAIAxAhAAIAYAQgAECMAAQBiBCAAQIwABACIEYAAADECEAAgRgACAMQIQACAGAEIABAjAAEAYgQgAECMAAQAiBGAAAAxAhAAIEYAAgDECEAAgBgBCAAQIwABAGIEIABAjAAEAIgRgAAAMQIQACBGAAIAxAhAAIAYAQgAECMAAQBiBCAAQIwABACIEYAAADECEAAgRgACAMQIQACAGAEIABAjAAEAYgQgAECMAAQAiBGAAAAxAhAAIEYAAgDECEAAgBgBCAAQIwABAGIEIABAjAAEAIgRgAAAMQIQACBGAAIAxAhAAIAYAQgAECMAAQBiBCAAQIwABACIEYAAADECEAAgRgACAMTctgfAf+HlbXvBu1/P2wu+jnndXvDux8/tBdf152l7AfDFeAABAGIEIABAjAAEAIgRgAAAMQIQACBGAAIAxAhAAIAYAQgAECMAAQBiBCAAQIwABACIEYAAADECEAAgRgACAMQIQACAGAEIABAjAAEAYgQgAECMAAQAiBGAAAAxAhAAIEYAAgDECEAAgBgBCAAQIwABAGIEIABAjAAEAIgRgAAAMQIQACBGAAIAxAhAAIAYAQgAECMAAQBizszM9ggAAD6PBxAAIEYAAgDECEAAgBgBCAAQIwABAGIEIABAjAAEAIgRgAAAMQIQACBGAAIAxAhAAIAYAQgAECMAAQBiBCAAQIwABACIEYAAADECEAAgRgACAMQIQACAGAEIABAjAAEAYgQgAECMAAQAiBGAAAAxAhAAIEYAAgDECEAAgBgBCAAQIwABAGIEIABAjAAEAIgRgAAAMQIQACBGAAIAxAhAAIAYAQgAECMAAQBiBCAAQIwABACIEYAAADECEAAgRgACAMQIQACAGAEIABAjAAEAYgQgAECMAAQAiBGAAAAxAhAAIEYAAgDECEAAgBgBCAAQ8w+hbykee8ZMPwAAAABJRU5ErkJggg==;clipPath=inset(12.22% 20% 11.33% 22.67%);opacity=10;" vertex="1" parent="1">
          <mxGeometry x="640" y="240" width="280" height="280" as="geometry" />
        </mxCell>
        <mxCell id="dCx_wY1wJ-MxOwq4zV9K-2" value="" style="shape=image;verticalLabelPosition=bottom;labelBackgroundColor=default;verticalAlign=top;aspect=fixed;imageAspect=0;image=data:image/png,iVBORw0KGgoAAAANSUhEUgAAAoAAAAHgCAYAAAA10dzkAAAAOXRFWHRTb2Z0d2FyZQBNYXRwbG90bGliIHZlcnNpb24zLjkuMiwgaHR0cHM6Ly9tYXRwbG90bGliLm9yZy8hTgPZAAAACXBIWXMAAA9hAAAPYQGoP6dpAAAJTElEQVR4nO3YQW2VYRRF0X7kKcBChbRSkIIREjSgACMkVVALl8FjxoxHuPzZayk4w51zZmaeAADI+LA9AACAf0sAAgDECEAAgBgBCAAQIwABAGIEIABAjAAEAIgRgAAAMQIQACBGAAIAxAhAAIAYAQgAECMAAQBiBCAAQIwABACIEYAAADECEAAgRgACAMQIQACAGAEIABAjAAEAYgQgAECMAAQAiBGAAAAxAhAAIEYAAgDECEAAgBgBCAAQIwABAGIEIABAjAAEAIgRgAAAMQIQACBGAAIAxAhAAIAYAQgAECMAAQBiBCAAQIwABACIEYAAADECEAAgRgACAMQIQACAGAEIABAjAAEAYgQgAECMAAQAiBGAAAAxAhAAIEYAAgDECEAAgBgBCAAQIwABAGIEIABAjAAEAIgRgAAAMQIQACDmtj2A6zpnewEAj5jZXsAWDyAAQIwABACIEYAAADECEAAgRgACAMQIQACAGAEIABAjAAEAYgQgAECMAAQAiBGAAAAxAhAAIEYAAgDECEAAgBgBCAAQIwABAGIEIABAjAAEAIgRgAAAMQIQACBGAAIAxAhAAIAYAQgAECMAAQBiBCAAQIwABACIEYAAADECEAAgRgACAMQIQACAGAEIABAjAAEAYgQgAECMAAQAiBGAAAAxAhAAIEYAAgDECEAAgBgBCAAQIwABAGIEIABAjAAEAIgRgAAAMQIQACBGAAIAxAhAAIAYAQgAECMAAQBiBCAAQIwABACIEYAAADECEAAgRgACAMQIQACAGAEIABAjAAEAYgQgAECMAAQAiBGAAAAxAhAAIEYAAgDECEAAgBgBCAAQIwABAGIEIABAjAAEAIgRgAAAMQIQACBGAAIAxAhAAIAYAQgAECMAAQBiBCAAQIwABACIEYAAADECEAAgRgACAMQIQACAGAEIABAjAAEAYgQgAECMAAQAiBGAAAAxAhAAIEYAAgDECEAAgBgBCAAQIwABAGIEIABAjAAEAIgRgAAAMQIQACBGAAIAxAhAAIAYAQgAECMAAQBiBCAAQIwABACIEYAAADG37QEARDy/by+4+/FxewGs8wACAMQIQACAGAEIABAjAAEAYgQgAECMAAQAiBGAAAAxAhAAIEYAAgDECEAAgBgBCAAQIwABAGIEIABAjAAEAIgRgAAAMQIQACBGAAIAxAhAAIAYAQgAECMAAQBiBCAAQIwABACIEYAAADECEAAgRgACAMQIQACAGAEIABAjAAEAYgQgAECMAAQAiBGAAAAxAhAAIObMzGyP4JrO2V4AXMr3r9sL7l4/bS/4byiALg8gAECMAAQAiBGAAAAxAhAAIEYAAgDECEAAgBgBCAAQIwABAGIEIABAjAAEAIgRgAAAMQIQACBGAAIAxAhAAIAYAQgAECMAAQBiBCAAQIwABACIEYAAADECEAAgRgACAMQIQACAGAEIABAjAAEAYgQgAECMAAQAiBGAAAAxAhAAIEYAAgDECEAAgBgBCAAQIwABAGIEIABAzG17AAARL2/bC4BfPIAAADECEAAgRgACAMQIQACAGAEIABAjAAEAYgQgAECMAAQAiBGAAAAxAhAAIEYAAgDECEAAgBgBCAAQIwABAGIEIABAjAAEAIgRgAAAMQIQACBGAAIAxAhAAIAYAQgAECMAAQBiBCAAQIwABACIEYAAADECEAAgRgACAMQIQACAGAEIABAjAAEAYgQgAECMAAQAiBGAAAAxZ2ZmewTXdM72AgAeoQC6PIAAADECEAAgRgACAMQIQACAGAEIABAjAAEAYgQgAECMAAQAiBGAAAAxAhAAIEYAAgDECEAAgBgBCAAQIwABAGIEIABAjAAEAIgRgAAAMQIQACBGAAIAxAhAAIAYAQgAECMAAQBiBCAAQIwABACIEYAAADECEAAgRgACAMQIQACAGAEIABAjAAEAYgQgAECMAAQAiBGAAAAxAhAAIEYAAgDECEAAgBgBCAAQIwABAGIEIABAjAAEAIgRgAAAMQIQACBGAAIAxAhAAIAYAQgAECMAAQBiBCAAQIwABACIEYAAADECEAAgRgACAMQIQACAGAEIABAjAAEAYgQgAECMAAQAiBGAAAAxAhAAIEYAAgDECEAAgBgBCAAQIwABAGIEIABAjAAEAIgRgAAAMQIQACDmtj0A+Iue37cXPD19+ba94O7lbXvB3fm8vQDgNx5AAIAYAQgAECMAAQBiBCAAQIwABACIEYAAADECEAAgRgACAMQIQACAGAEIABAjAAEAYgQgAECMAAQAiBGAAAAxAhAAIEYAAgDECEAAgBgBCAAQIwABAGIEIABAjAAEAIgRgAAAMQIQACBGAAIAxAhAAIAYAQgAECMAAQBiBCAAQIwABACIEYAAADECEAAgRgACAMQIQACAmDMzsz2CazpnewEAj1AAXR5AAIAYAQgAECMAAQBiBCAAQIwABACIEYAAADECEAAgRgACAMQIQACAGAEIABAjAAEAYgQgAECMAAQAiBGAAAAxAhAAIEYAAgDECEAAgBgBCAAQIwABAGIEIABAjAAEAIgRgAAAMQIQACBGAAIAxAhAAIAYAQgAECMAAQBiBCAAQIwABACIEYAAADECEAAgRgACAMQIQACAGAEIABAjAAEAYgQgAECMAAQAiBGAAAAxAhAAIEYAAgDECEAAgBgBCAAQIwABAGIEIABAjAAEAIgRgAAAMQIQACBGAAIAxAhAAIAYAQgAECMAAQBiBCAAQIwABACIEYAAADECEAAgRgACAMQIQACAGAEIABAjAAEAYgQgAECMAAQAiBGAAAAxAhAAIEYAAgDECEAAgBgBCAAQc9sewHXNbC8AAP6EBxAAIEYAAgDECEAAgBgBCAAQIwABAGIEIABAjAAEAIgRgAAAMQIQACBGAAIAxAhAAIAYAQgAECMAAQBiBCAAQIwABACIEYAAADECEAAgRgACAMQIQACAGAEIABAjAAEAYgQgAECMAAQAiBGAAAAxAhAAIEYAAgDECEAAgBgBCAAQIwABAGIEIABAjAAEAIgRgAAAMQIQACBGAAIAxAhAAIAYAQgAECMAAQBiBCAAQIwABACIEYAAADECEAAgRgACAMQIQACAGAEIABAjAAEAYgQgAECMAAQAiBGAAAAxAhAAIEYAAgDECEAAgBgBCAAQ8xMJ8SbU5Is/qgAAAABJRU5ErkJggg==;opacity=10;clipPath=inset(12.22% 19.67% 10.89% 22%);" vertex="1" parent="1">
          <mxGeometry x="610" y="263.75" width="280" height="276.79999999999995" as="geometry" />
        </mxCell>
        <mxCell id="dCx_wY1wJ-MxOwq4zV9K-1" value="" style="shape=image;verticalLabelPosition=bottom;labelBackgroundColor=default;verticalAlign=top;aspect=fixed;imageAspect=0;image=data:image/png,iVBORw0KGgoAAAANSUhEUgAAAoAAAAHgCAYAAAA10dzkAAAAOXRFWHRTb2Z0d2FyZQBNYXRwbG90bGliIHZlcnNpb24zLjkuMiwgaHR0cHM6Ly9tYXRwbG90bGliLm9yZy8hTgPZAAAACXBIWXMAAA9hAAAPYQGoP6dpAAAJXUlEQVR4nO3YsU1cURRF0XnWpxknroQSkFuZXhy7F5NSCOkjGEckIBC+/tprVXDCrbP23vsCAEDGt+kBAAD8WwIQACBGAAIAxAhAAIAYAQgAECMAAQBiBCAAQIwABACIEYAAADECEAAgRgACAMQIQACAGAEIABAjAAEAYgQgAECMAAQAiBGAAAAxAhAAIEYAAgDECEAAgBgBCAAQIwABAGIEIABAjAAEAIgRgAAAMQIQACBGAAIAxAhAAIAYAQgAECMAAQBiBCAAQIwABACIEYAAADECEAAgRgACAMQIQACAGAEIABAjAAEAYgQgAECMAAQAiBGAAAAxAhAAIEYAAgDECEAAgBgBCAAQIwABAGIEIABAjAAEAIgRgAAAMQIQACBGAAIAxAhAAIAYAQgAECMAAQBiBCAAQIwABACIEYAAADHH9ADOa63pBcC7PDxOL7j59WN6Aa/sPb2AKR5AAIAYAQgAECMAAQBiBCAAQIwABACIEYAAADECEAAgRgACAMQIQACAGAEIABAjAAEAYgQgAECMAAQAiBGAAAAxAhAAIEYAAgDECEAAgBgBCAAQIwABAGIEIABAjAAEAIgRgAAAMQIQACBGAAIAxAhAAIAYAQgAECMAAQBiBCAAQIwABACIEYAAADECEAAgRgACAMQc0wMA+GLPd9MLgP+MBxAAIEYAAgDECEAAgBgBCAAQIwABAGIEIABAjAAEAIgRgAAAMQIQACBGAAIAxAhAAIAYAQgAECMAAQBiBCAAQIwABACIEYAAADECEAAgRgACAMQIQACAGAEIABAjAAEAYgQgAECMAAQAiBGAAAAxAhAAIEYAAgDECEAAgBgBCAAQIwABAGIEIABAjAAEAIgRgAAAMcf0AAC+2P3T9IKb39+nFwB/eQABAGIEIABAjAAEAIgRgAAAMQIQACBGAAIAxAhAAIAYAQgAECMAAQBiBCAAQIwABACIEYAAADECEAAgRgACAMQIQACAGAEIABAjAAEAYgQgAECMAAQAiBGAAAAxAhAAIEYAAgDECEAAgBgBCAAQIwABAGIEIABAjAAEAIgRgAAAMQIQACBGAAIAxAhAAIAYAQgAECMAAQBi1t57T4/gnNaaXgC8y75OL7hZ1+kFvKIAujyAAAAxAhAAIEYAAgDECEAAgBgBCAAQIwABAGIEIABAjAAEAIgRgAAAMQIQACBGAAIAxAhAAIAYAQgAECMAAQBiBCAAQIwABACIEYAAADECEAAgRgACAMQIQACAGAEIABAjAAEAYgQgAECMAAQAiBGAAAAxAhAAIEYAAgDECEAAgBgBCAAQIwABAGIEIABAjAAEAIhZe+89PYJzWmt6AQCfoQC6PIAAADECEAAgRgACAMQIQACAGAEIABAjAAEAYgQgAECMAAQAiBGAAAAxAhAAIEYAAgDECEAAgBgBCAAQIwABAGIEIABAjAAEAIgRgAAAMQIQACBGAAIAxAhAAIAYAQgAECMAAQBiBCAAQIwABACIEYAAADECEAAgRgACAMQIQACAGAEIABAjAAEAYgQgAECMAAQAiBGAAAAxAhAAIEYAAgDECEAAgBgBCAAQIwABAGIEIABAjAAEAIgRgAAAMQIQACBGAAIAxAhAAIAYAQgAECMAAQBiBCAAQIwABACIEYAAADECEAAgRgACAMQIQACAGAEIABAjAAEAYgQgAECMAAQAiBGAAAAxAhAAIEYAAgDECEAAgBgBCAAQIwABAGIEIABAjAAEAIgRgAAAMQIQACBGAAIAxAhAAIAYAQgAECMAAQBiBCAAQIwABACIEYAAADECEAAgRgACAMQIQACAGAEIABAjAAEAYgQgAECMAAQAiBGAAAAxAhAAIEYAAgDECEAAgBgBCAAQIwABAGIEIABAjAAEAIgRgAAAMQIQACBGAAIAxAhAAIAYAQgAECMAAQBiBCAAQIwABACIEYAAADECEAAgRgACAMQIQACAmGN6ACf28Di94Ob5bnrB5XL/NL3g5uef6QWXy7pOLwDgDR5AAIAYAQgAECMAAQBiBCAAQIwABACIEYAAADECEAAgRgACAMQIQACAGAEIABAjAAEAYgQgAECMAAQAiBGAAAAxAhAAIEYAAgDECEAAgBgBCAAQIwABAGIEIABAjAAEAIgRgAAAMQIQACBGAAIAxAhAAIAYAQgAECMAAQBiBCAAQIwABACIEYAAADECEAAgRgACAMQIQACAmLX33tMjOKe1phcA8BkKoMsDCAAQIwABAGIEIABAjAAEAIgRgAAAMQIQACBGAAIAxAhAAIAYAQgAECMAAQBiBCAAQIwABACIEYAAADECEAAgRgACAMQIQACAGAEIABAjAAEAYgQgAECMAAQAiBGAAAAxAhAAIEYAAgDECEAAgBgBCAAQIwABAGIEIABAjAAEAIgRgAAAMQIQACBGAAIAxAhAAIAYAQgAECMAAQBiBCAAQIwABACIEYAAADECEAAgRgACAMQIQACAGAEIABAjAAEAYgQgAECMAAQAiBGAAAAxAhAAIEYAAgDECEAAgBgBCAAQIwABAGIEIABAjAAEAIgRgAAAMQIQACBGAAIAxAhAAIAYAQgAECMAAQBiBCAAQIwABACIEYAAADECEAAgRgACAMQIQACAGAEIABAjAAEAYgQgAECMAAQAiBGAAAAxAhAAIEYAAgDECEAAgBgBCAAQIwABAGIEIABAjAAEAIgRgAAAMQIQACBGAAIAxAhAAIAYAQgAECMAAQBiBCAAQIwABACIEYAAADECEAAgRgACAMQIQACAGAEIABAjAAEAYgQgAECMAAQAiBGAAAAxAhAAIEYAAgDECEAAgBgBCAAQIwABAGIEIABAjAAEAIg5pgdwXntPLwAAPsIDCAAQIwABAGIEIABAjAAEAIgRgAAAMQIQACBGAAIAxAhAAIAYAQgAECMAAQBiBCAAQIwABACIEYAAADECEAAgRgACAMQIQACAGAEIABAjAAEAYgQgAECMAAQAiBGAAAAxAhAAIEYAAgDECEAAgBgBCAAQIwABAGIEIABAjAAEAIgRgAAAMQIQACBGAAIAxAhAAIAYAQgAECMAAQBiBCAAQIwABACIEYAAADECEAAgRgACAMQIQACAGAEIABAjAAEAYgQgAECMAAQAiBGAAAAxAhAAIEYAAgDECEAAgBgBCAAQIwABAGIEIABAjAAEAIh5AQpLKa7jdiecAAAAAElFTkSuQmCC;opacity=70;clipPath=inset(12.22% 20.33% 10.89% 22%);" vertex="1" parent="1">
          <mxGeometry x="580" y="290" width="280" height="280" as="geometry" />
        </mxCell>
        <mxCell id="dCx_wY1wJ-MxOwq4zV9K-5" value="" style="endArrow=classic;startArrow=classic;html=1;rounded=0;entryX=0;entryY=0;entryDx=0;entryDy=0;exitX=0;exitY=0;exitDx=0;exitDy=0;" edge="1" parent="1" source="dCx_wY1wJ-MxOwq4zV9K-1" target="dCx_wY1wJ-MxOwq4zV9K-4">
          <mxGeometry width="50" height="50" relative="1" as="geometry">
            <mxPoint x="590" y="240" as="sourcePoint" />
            <mxPoint x="640" y="190" as="targetPoint" />
          </mxGeometry>
        </mxCell>
        <mxCell id="dCx_wY1wJ-MxOwq4zV9K-7" value="&lt;font face=&quot;Times New Roman&quot;&gt;&lt;i&gt;|E|&lt;/i&gt;&lt;/font&gt;" style="text;html=1;align=center;verticalAlign=middle;whiteSpace=wrap;rounded=0;fontSize=23;" vertex="1" parent="1">
          <mxGeometry x="580" y="210" width="60" height="30" as="geometry" />
        </mxCell>
        <mxCell id="dCx_wY1wJ-MxOwq4zV9K-8" value="0" style="rounded=0;whiteSpace=wrap;html=1;fontSize=45;opacity=60;" vertex="1" parent="1">
          <mxGeometry x="580" y="290" width="180" height="180" as="geometry" />
        </mxCell>
        <mxCell id="dCx_wY1wJ-MxOwq4zV9K-9" value="0" style="rounded=0;whiteSpace=wrap;html=1;fontSize=45;opacity=60;" vertex="1" parent="1">
          <mxGeometry x="760" y="470" width="100" height="100" as="geometry" />
        </mxCell>
        <mxCell id="dCx_wY1wJ-MxOwq4zV9K-10" value="" style="shape=curlyBracket;whiteSpace=wrap;html=1;rounded=1;labelPosition=left;verticalLabelPosition=middle;align=right;verticalAlign=middle;rotation=90;" vertex="1" parent="1">
          <mxGeometry x="755" y="85" width="20" height="190" as="geometry" />
        </mxCell>
        <mxCell id="dCx_wY1wJ-MxOwq4zV9K-11" value="" style="shape=curlyBracket;whiteSpace=wrap;html=1;rounded=1;labelPosition=left;verticalLabelPosition=middle;align=right;verticalAlign=middle;rotation=90;" vertex="1" parent="1">
          <mxGeometry x="895" y="135" width="20" height="90" as="geometry" />
        </mxCell>
        <mxCell id="dCx_wY1wJ-MxOwq4zV9K-12" value="V:={x&lt;sub&gt;1&lt;/sub&gt;,x&lt;sub&gt;2&lt;/sub&gt;,...,x&lt;sub&gt;7&lt;/sub&gt;}" style="text;html=1;align=center;verticalAlign=middle;whiteSpace=wrap;rounded=0;fontSize=18;fontStyle=2;fontFamily=Times New Roman;" vertex="1" parent="1">
          <mxGeometry x="697.5" y="135" width="135" height="30" as="geometry" />
        </mxCell>
        <mxCell id="dCx_wY1wJ-MxOwq4zV9K-13" value="|V|" style="text;html=1;align=center;verticalAlign=middle;whiteSpace=wrap;rounded=0;fontSize=18;fontStyle=2;fontFamily=Times New Roman;" vertex="1" parent="1">
          <mxGeometry x="1000" y="290" width="20" height="30" as="geometry" />
        </mxCell>
        <mxCell id="dCx_wY1wJ-MxOwq4zV9K-14" value="" style="shape=curlyBracket;whiteSpace=wrap;html=1;rounded=1;labelPosition=left;verticalLabelPosition=middle;align=right;verticalAlign=middle;rotation=-180;" vertex="1" parent="1">
          <mxGeometry x="970" y="210" width="20" height="190" as="geometry" />
        </mxCell>
        <mxCell id="dCx_wY1wJ-MxOwq4zV9K-15" value="" style="shape=curlyBracket;whiteSpace=wrap;html=1;rounded=1;labelPosition=left;verticalLabelPosition=middle;align=right;verticalAlign=middle;rotation=-180;" vertex="1" parent="1">
          <mxGeometry x="970" y="400" width="20" height="90" as="geometry" />
        </mxCell>
        <mxCell id="dCx_wY1wJ-MxOwq4zV9K-16" value="|E|" style="text;html=1;align=center;verticalAlign=middle;whiteSpace=wrap;rounded=0;fontSize=18;fontStyle=2;fontFamily=Times New Roman;" vertex="1" parent="1">
          <mxGeometry x="1000" y="430" width="20" height="30" as="geometry" />
        </mxCell>
        <mxCell id="dCx_wY1wJ-MxOwq4zV9K-17" value="E:={e&lt;sub&gt;1&lt;/sub&gt;,e&lt;sub&gt;2&lt;/sub&gt;,e&lt;sub&gt;3&lt;/sub&gt;,e&lt;span style=&quot;font-size: 15px;&quot;&gt;&lt;sub&gt;4&lt;/sub&gt;&lt;/span&gt;}" style="text;html=1;align=center;verticalAlign=middle;whiteSpace=wrap;rounded=0;fontSize=18;fontStyle=2;fontFamily=Times New Roman;" vertex="1" parent="1">
          <mxGeometry x="850" y="135" width="135" height="30" as="geometry" />
        </mxCell>
        <mxCell id="dCx_wY1wJ-MxOwq4zV9K-20" value="" style="shape=image;verticalLabelPosition=bottom;labelBackgroundColor=default;verticalAlign=top;aspect=fixed;imageAspect=0;image=data:image/png,iVBORw0KGgoAAAANSUhEUgAAAoAAAAHgCAYAAAA10dzkAAAAOXRFWHRTb2Z0d2FyZQBNYXRwbG90bGliIHZlcnNpb24zLjkuMiwgaHR0cHM6Ly9tYXRwbG90bGliLm9yZy8hTgPZAAAACXBIWXMAAA9hAAAPYQGoP6dpAAAJLklEQVR4nO3YsVFCARREUb9DYGyhVkBAQJv0QfYsQuAN3nMq2PDOHjMzHwAAZHxuDwAA4LUEIABAjAAEAIgRgAAAMQIQACBGAAIAxAhAAIAYAQgAECMAAQBiBCAAQIwABACIEYAAADECEAAgRgACAMQIQACAGAEIABAjAAEAYgQgAECMAAQAiBGAAAAxAhAAIEYAAgDECEAAgBgBCAAQIwABAGIEIABAjAAEAIgRgAAAMQIQACBGAAIAxAhAAIAYAQgAECMAAQBiBCAAQIwABACIEYAAADECEAAgRgACAMQIQACAGAEIABAjAAEAYgQgAECMAAQAiBGAAAAxAhAAIEYAAgDECEAAgBgBCAAQIwABAGIEIABAjAAEAIgRgAAAMQIQACBGAAIAxAhAAIAYAQgAECMAAQBiTtsDeF/Hsb0AgL+Y2V7AFg8gAECMAAQAiBGAAAAxAhAAIEYAAgDECEAAgBgBCAAQIwABAGIEIABAjAAEAIgRgAAAMQIQACBGAAIAxAhAAIAYAQgAECMAAQBiBCAAQIwABACIEYAAADECEAAgRgACAMQIQACAGAEIABAjAAEAYgQgAECMAAQAiBGAAAAxAhAAIEYAAgDECEAAgBgBCAAQIwABAGIEIABAjAAEAIgRgAAAMQIQACBGAAIAxAhAAIAYAQgAECMAAQBiBCAAQIwABACIEYAAADECEAAgRgACAMQIQACAGAEIABAjAAEAYgQgAECMAAQAiBGAAAAxAhAAIEYAAgDECEAAgBgBCAAQIwABAGIEIABAjAAEAIgRgAAAMQIQACBGAAIAxAhAAIAYAQgAECMAAQBiBCAAQIwABACIEYAAADECEAAgRgACAMQIQACAGAEIABAjAAEAYgQgAECMAAQAiBGAAAAxAhAAIEYAAgDECEAAgBgBCAAQIwABAGIEIABAjAAEAIgRgAAAMQIQACBGAAIAxAhAAIAYAQgAECMAAQBiBCAAQIwABACIEYAAADECEAAgRgACAMQIQACAGAEIABAjAAEAYgQgAECMAAQAiBGAAAAxAhAAIEYAAgDECEAAgBgBCAAQIwABAGJO2wMA+Ifmsr3g8W7f2wue4Gd7AEs8gAAAMQIQACBGAAIAxAhAAIAYAQgAECMAAQBiBCAAQIwABACIEYAAADECEAAgRgACAMQIQACAGAEIABAjAAEAYgQgAECMAAQAiBGAAAAxAhAAIEYAAgDECEAAgBgBCAAQIwABAGIEIABAjAAEAIgRgAAAMQIQACBGAAIAxAhAAIAYAQgAECMAAQBiBCAAQIwABACIEYAAADECEAAgRgACAMQIQACAGAEIABAjAAEAYgQgAECMAAQAiBGAAAAxAhAAIEYAAgDECEAAgBgBCAAQIwABAGIEIABAjAAEAIgRgAAAMQIQACBGAAIAxBwzM9sjeE/Hsb0AgL9QAF0eQACAGAEIABAjAAEAYgQgAECMAAQAiBGAAAAxAhAAIEYAAgDECEAAgBgBCAAQIwABAGIEIABAjAAEAIgRgAAAMQIQACBGAAIAxAhAAIAYAQgAECMAAQBiBCAAQIwABACIEYAAADECEAAgRgACAMQIQACAGAEIABAjAAEAYgQgAECMAAQAiBGAAAAxAhAAIEYAAgDECEAAgBgBCAAQIwABAGIEIABAjAAEAIgRgAAAMQIQACBGAAIAxAhAAIAYAQgAECMAAQBiBCAAQIwABACIEYAAADECEAAgRgACAMQIQACAGAEIABAjAAEAYgQgAECMAAQAiBGAAAAxAhAAIEYAAgDECEAAgBgBCAAQIwABAGIEIABAjAAEAIgRgAAAMQIQACBGAAIAxAhAAIAYAQgAECMAAQBiBCAAQIwABACIEYAAADECEAAgRgACAMQIQACAGAEIABAjAAEAYgQgAECMAAQAiBGAAAAxAhAAIEYAAgDECEAAgBgBCAAQIwABAGIEIABAjAAEAIgRgAAAMQIQACBGAAIAxAhAAIAYAQgAECMAAQBiBCAAQIwABACIEYAAADECEAAgRgACAMQIQACAGAEIABAjAAEAYgQgAECMAAQAiBGAAAAxAhAAIEYAAgDECEAAgJjT9gDgyeayveCxjsv2Aqru1+0FT3DeHsASDyAAQIwABACIEYAAADECEAAgRgACAMQIQACAGAEIABAjAAEAYgQgAECMAAQAiBGAAAAxAhAAIEYAAgDECEAAgBgBCAAQIwABAGIEIABAjAAEAIgRgAAAMQIQACBGAAIAxAhAAIAYAQgAECMAAQBiBCAAQIwABACIEYAAADECEAAgRgACAMQIQACAGAEIABAjAAEAYgQgAECMAAQAiBGAAAAxAhAAIEYAAgDECEAAgBgBCAAQIwABAGIEIABAjAAEAIgRgAAAMQIQACBGAAIAxAhAAIAYAQgAECMAAQBiBCAAQIwABACIEYAAADECEAAg5rQ9AHiy2/f2Aoru1+0Fj/d13l7weLM9gC0eQACAGAEIABAjAAEAYgQgAECMAAQAiBGAAAAxAhAAIEYAAgDECEAAgBgBCAAQIwABAGIEIABAjAAEAIgRgAAAMQIQACBGAAIAxAhAAIAYAQgAECMAAQBiBCAAQIwABACIEYAAADECEAAgRgACAMQIQACAGAEIABAjAAEAYgQgAECMAAQAiBGAAAAxAhAAIEYAAgDECEAAgBgBCAAQIwABAGIEIABAjAAEAIgRgAAAMQIQACBGAAIAxAhAAIAYAQgAECMAAQBiBCAAQIwABACIEYAAADECEAAgRgACAMQIQACAGAEIABAjAAEAYgQgAEDMMTOzPQIAgNfxAAIAxAhAAIAYAQgAECMAAQBiBCAAQIwABACIEYAAADECEAAgRgACAMQIQACAGAEIABAjAAEAYgQgAECMAAQAiBGAAAAxAhAAIEYAAgDECEAAgBgBCAAQIwABAGIEIABAjAAEAIgRgAAAMQIQACBGAAIAxAhAAIAYAQgAECMAAQBiBCAAQIwABACIEYAAADECEAAgRgACAMQIQACAGAEIABAjAAEAYgQgAECMAAQAiBGAAAAxAhAAIEYAAgDECEAAgBgBCAAQIwABAGIEIABAjAAEAIgRgAAAMQIQACBGAAIAxAhAAIAYAQgAECMAAQBifgGffB58LhnJ+QAAAABJRU5ErkJggg==;clipPath=inset(12.67% 20.33% 10.44% 21%);opacity=50;" vertex="1" parent="1">
          <mxGeometry x="310" y="830.55" width="480" height="471.81864666780297" as="geometry" />
        </mxCell>
        <mxCell id="dCx_wY1wJ-MxOwq4zV9K-19" value="" style="shape=image;verticalLabelPosition=bottom;labelBackgroundColor=default;verticalAlign=top;aspect=fixed;imageAspect=0;image=data:image/png,iVBORw0KGgoAAAANSUhEUgAAAoAAAAHgCAYAAAA10dzkAAAAOXRFWHRTb2Z0d2FyZQBNYXRwbG90bGliIHZlcnNpb24zLjkuMiwgaHR0cHM6Ly9tYXRwbG90bGliLm9yZy8hTgPZAAAACXBIWXMAAA9hAAAPYQGoP6dpAAAJMElEQVR4nO3YUW0CURRF0U4zYjBQIf3DAi5wURv4QNSrAxLKpDdkr6XgfO6cba21PgAAyPicHgAAwP8SgAAAMQIQACBGAAIAxAhAAIAYAQgAECMAAQBiBCAAQIwABACIEYAAADECEAAgRgACAMQIQACAGAEIABAjAAEAYgQgAECMAAQAiBGAAAAxAhAAIEYAAgDECEAAgBgBCAAQIwABAGIEIABAjAAEAIgRgAAAMQIQACBGAAIAxAhAAIAYAQgAECMAAQBiBCAAQIwABACIEYAAADECEAAgRgACAMQIQACAGAEIABAjAAEAYgQgAECMAAQAiBGAAAAxAhAAIEYAAgDECEAAgBgBCAAQIwABAGIEIABAjAAEAIgRgAAAMQIQACBGAAIAxAhAAIAYAQgAECMAAQBiBCAAQIwABACI2acH8L62bXoBAK9Ya3oBUzyAAAAxAhAAIEYAAgDECEAAgBgBCAAQIwABAGIEIABAjAAEAIgRgAAAMQIQACBGAAIAxAhAAIAYAQgAECMAAQBiBCAAQIwABACIEYAAADECEAAgRgACAMQIQACAGAEIABAjAAEAYgQgAECMAAQAiBGAAAAxAhAAIEYAAgDECEAAgBgBCAAQIwABAGIEIABAjAAEAIgRgAAAMQIQACBGAAIAxAhAAIAYAQgAECMAAQBiBCAAQIwABACIEYAAADECEAAgRgACAMQIQACAGAEIABAjAAEAYgQgAECMAAQAiBGAAAAxAhAAIEYAAgDECEAAgBgBCAAQIwABAGIEIABAjAAEAIgRgAAAMQIQACBGAAIAxAhAAIAYAQgAECMAAQBiBCAAQIwABACIEYAAADECEAAgRgACAMQIQACAGAEIABAjAAEAYgQgAECMAAQAiBGAAAAxAhAAIEYAAgDECEAAgBgBCAAQIwABAGIEIABAjAAEAIgRgAAAMQIQACBGAAIAxAhAAIAYAQgAECMAAQBiBCAAQIwABACIEYAAADECEAAgRgACAMQIQACAGAEIABAjAAEAYgQgAECMAAQAiBGAAAAxAhAAIEYAAgDECEAAgBgBCAAQIwABAGIEIABAjAAEAIgRgAAAMQIQACBGAAIAxAhAAIAYAQgAECMAAQBiBCAAQIwABACIEYAAADECEAAgRgACAMQIQACAGAEIABAjAAEAYgQgAECMAAQAiBGAAAAxAhAAIEYAAgDECEAAgBgBCAAQIwABAGIEIABAjAAEAIgRgAAAMQIQACBGAAIAxAhAAIAYAQgAECMAAQBiBCAAQIwABACIEYAAADECEAAgRgACAMQIQACAGAEIABAjAAEAYgQgAECMAAQAiBGAAAAxAhAAIEYAAgDECEAAgBgBCAAQIwABAGIEIABAjAAEAIgRgAAAMQIQACBGAAIAxAhAAICYfXoAQN66Ti843u00veB43+fpBXAYDyAAQIwABACIEYAAADECEAAgRgACAMQIQACAGAEIABAjAAEAYgQgAECMAAQAiBGAAAAxAhAAIEYAAgDECEAAgBgBCAAQIwABAGIEIABAjAAEAIgRgAAAMQIQACBGAAIAxAhAAIAYAQgAECMAAQBiBCAAQIwABACIEYAAADECEAAgRgACAMQIQACAGAEIABAjAAEAYgQgAECMAAQAiBGAAAAxAhAAIEYAAgDECEAAgBgBCAAQIwABAGIEIABAjAAEAIgRgAAAMQIQACBGAAIAxAhAAIAYAQgAECMAAQBiBCAAQIwABACIEYAAADECEAAgZp8eAPCUdZ1ecLztOr3geJf79ALgAQ8gAECMAAQAiBGAAAAxAhAAIEYAAgDECEAAgBgBCAAQIwABAGIEIABAjAAEAIgRgAAAMQIQACBGAAIAxAhAAIAYAQgAECMAAQBiBCAAQIwABACIEYAAADECEAAgRgACAMQIQACAGAEIABAjAAEAYgQgAECMAAQAiBGAAAAxAhAAIEYAAgDECEAAgBgBCAAQIwABAGIEIABAjAAEAIgRgAAAMQIQACBGAAIAxAhAAIAYAQgAECMAAQBiBCAAQIwABACIEYAAADECEAAgRgACAMQIQACAGAEIABAjAAEAYgQgAECMAAQAiBGAAAAxAhAAIGafHgDwlNtpesHxLvfpBcf7+ZpeADzgAQQAiBGAAAAxAhAAIEYAAgDECEAAgBgBCAAQIwABAGIEIABAjAAEAIgRgAAAMQIQACBGAAIAxAhAAIAYAQgAECMAAQBiBCAAQIwABACIEYAAADECEAAgRgACAMQIQACAGAEIABAjAAEAYgQgAECMAAQAiBGAAAAxAhAAIEYAAgDECEAAgBgBCAAQIwABAGIEIABAjAAEAIgRgAAAMQIQACBGAAIAxAhAAIAYAQgAECMAAQBiBCAAQIwABACIEYAAADECEAAgRgACAMQIQACAGAEIABAjAAEAYgQgAECMAAQAiBGAAAAxAhAAIEYAAgDEbGutNT2C97Rt0wsAeIUC6PIAAgDECEAAgBgBCAAQIwABAGIEIABAjAAEAIgRgAAAMQIQACBGAAIAxAhAAIAYAQgAECMAAQBiBCAAQIwABACIEYAAADECEAAgRgACAMQIQACAGAEIABAjAAEAYgQgAECMAAQAiBGAAAAxAhAAIEYAAgDECEAAgBgBCAAQIwABAGIEIABAjAAEAIgRgAAAMQIQACBGAAIAxAhAAIAYAQgAECMAAQBiBCAAQIwABACIEYAAADECEAAgRgACAMQIQACAGAEIABAjAAEAYgQgAECMAAQAiBGAAAAxAhAAIEYAAgDECEAAgBgBCAAQIwABAGL26QG8r7WmFwAAf+EBBACIEYAAADECEAAgRgACAMQIQACAGAEIABAjAAEAYgQgAECMAAQAiBGAAAAxAhAAIEYAAgDECEAAgBgBCAAQIwABAGIEIABAjAAEAIgRgAAAMQIQACBGAAIAxAhAAIAYAQgAECMAAQBiBCAAQIwABACIEYAAADECEAAgRgACAMQIQACAGAEIABAjAAEAYgQgAECMAAQAiBGAAAAxAhAAIEYAAgDECEAAgBgBCAAQIwABAGIEIABAjAAEAIgRgAAAMQIQACBGAAIAxAhAAIAYAQgAECMAAQBiBCAAQIwABACIEYAAADECEAAgRgACAMT8AvAEGst68PBIAAAAAElFTkSuQmCC;clipPath=inset(13.56% 20.67% 10.89% 22.67%);opacity=50;" vertex="1" parent="1">
          <mxGeometry x="250" y="870.55" width="480" height="480" as="geometry" />
        </mxCell>
        <mxCell id="dCx_wY1wJ-MxOwq4zV9K-18" value="" style="shape=image;verticalLabelPosition=bottom;labelBackgroundColor=default;verticalAlign=top;aspect=fixed;imageAspect=0;image=data:image/png,iVBORw0KGgoAAAANSUhEUgAAAoAAAAHgCAYAAAA10dzkAAAAOXRFWHRTb2Z0d2FyZQBNYXRwbG90bGliIHZlcnNpb24zLjkuMiwgaHR0cHM6Ly9tYXRwbG90bGliLm9yZy8hTgPZAAAACXBIWXMAAA9hAAAPYQGoP6dpAAAJaUlEQVR4nO3YsW1UURRFUX80kxLTCAkBOXUgkboFt+DUkutwByROaIEmjIgePeAHV997rQpOuHWOtda6AQAg4930AAAA/i8BCAAQIwABAGIEIABAjAAEAIgRgAAAMQIQACBGAAIAxAhAAIAYAQgAECMAAQBiBCAAQIwABACIEYAAADECEAAgRgACAMQIQACAGAEIABAjAAEAYgQgAECMAAQAiBGAAAAxAhAAIEYAAgDECEAAgBgBCAAQIwABAGIEIABAjAAEAIgRgAAAMQIQACBGAAIAxAhAAIAYAQgAECMAAQBiBCAAQIwABACIEYAAADECEAAgRgACAMQIQACAGAEIABAjAAEAYgQgAECMAAQAiBGAAAAxAhAAIEYAAgDECEAAgBgBCAAQIwABAGIEIABAjAAEAIgRgAAAMQIQACBGAAIAxAhAAICYy/QAzus4phf8A88P0wv2e7lOL9jr88/pBfsdd9MLiFpregFTPIAAADECEAAgRgACAMQIQACAGAEIABAjAAEAYgQgAECMAAQAiBGAAAAxAhAAIEYAAgDECEAAgBgBCAAQIwABAGIEIABAjAAEAIgRgAAAMQIQACBGAAIAxAhAAIAYAQgAECMAAQBiBCAAQIwABACIEYAAADECEAAgRgACAMQIQACAGAEIABAjAAEAYgQgAECMAAQAiBGAAAAxAhAAIEYAAgDECEAAgBgBCAAQIwABAGIEIABAjAAEAIgRgAAAMQIQACBGAAIAxAhAAIAYAQgAECMAAQBiBCAAQIwABACIEYAAADECEAAgRgACAMRcpgdwYs8P0wv2+/htesF+90/TC/Z6/3t6AcDpeQABAGIEIABAjAAEAIgRgAAAMQIQACBGAAIAxAhAAIAYAQgAECMAAQBiBCAAQIwABACIEYAAADECEAAgRgACAMQIQACAGAEIABAjAAEAYgQgAECMAAQAiBGAAAAxAhAAIEYAAgDECEAAgBgBCAAQIwABAGIEIABAjAAEAIgRgAAAMQIQACBGAAIAxAhAAIAYAQgAECMAAQBiBCAAQIwABACIEYAAADECEAAgRgACAMQIQACAGAEIABAjAAEAYgQgAECMAAQAiBGAAAAxAhAAIEYAAgDECEAAgBgBCAAQIwABAGIEIABAjAAEAIgRgAAAMZfpAZzYy3V6wX73T9ML9rv9Mr1gr++P0wsATs8DCAAQIwABAGIEIABAjAAEAIgRgAAAMQIQACBGAAIAxAhAAIAYAQgAECMAAQBiBCAAQIwABACIEYAAADECEAAgRgACAMQIQACAGAEIABAjAAEAYgQgAECMAAQAiBGAAAAxAhAAIEYAAgDECEAAgBgBCAAQIwABAGIEIABAjAAEAIgRgAAAMQIQACBGAAIAxAhAAIAYAQgAECMAAQBiBCAAQIwABACIEYAAADECEAAgRgACAMQIQACAGAEIABAjAAEAYgQgAECMAAQAiBGAAAAxAhAAIEYAAgDECEAAgBgBCAAQIwABAGIEIABAzLHWWtMjOKfj5m56wn4/Pkwv2O/XdXrBXp++Ti+AN0MBdHkAAQBiBCAAQIwABACIEYAAADECEAAgRgACAMQIQACAGAEIABAjAAEAYgQgAECMAAQAiBGAAAAxAhAAIEYAAgDECEAAgBgBCAAQIwABAGIEIABAjAAEAIgRgAAAMQIQACBGAAIAxAhAAIAYAQgAECMAAQBiBCAAQIwABACIEYAAADECEAAgRgACAMQIQACAGAEIABAjAAEAYgQgAECMAAQAiBGAAAAxAhAAIEYAAgDECEAAgBgBCAAQIwABAGIEIABAjAAEAIgRgAAAMQIQACBGAAIAxAhAAIAYAQgAECMAAQBiBCAAQIwABACIEYAAADHHWmtNj+CcjmN6AQCvoQC6PIAAADECEAAgRgACAMQIQACAGAEIABAjAAEAYgQgAECMAAQAiBGAAAAxAhAAIEYAAgDECEAAgBgBCAAQIwABAGIEIABAjAAEAIgRgAAAMQIQACBGAAIAxAhAAIAYAQgAECMAAQBiBCAAQIwABACIEYAAADECEAAgRgACAMQIQACAGAEIABAjAAEAYgQgAECMAAQAiBGAAAAxAhAAIEYAAgDECEAAgBgBCAAQIwABAGIEIABAjAAEAIgRgAAAMQIQACBGAAIAxAhAAIAYAQgAECMAAQBiBCAAQIwABACIEYAAADECEAAgRgACAMQIQACAGAEIABAjAAEAYgQgAECMAAQAiBGAAAAxAhAAIEYAAgDECEAAgBgBCAAQIwABAGIEIABAjAAEAIgRgAAAMQIQACBGAAIAxAhAAIAYAQgAECMAAQBiBCAAQIwABACIEYAAADECEAAgRgACAMQIQACAGAEIABAjAAEAYgQgAECMAAQAiBGAAAAxAhAAIEYAAgDECEAAgBgBCAAQIwABAGIEIABAjAAEAIgRgAAAMQIQACBGAAIAxAhAAIAYAQgAECMAAQBiBCAAQIwABACIEYAAADECEAAgRgACAMQIQACAGAEIABAjAAEAYgQgAECMAAQAiBGAAAAxAhAAIEYAAgDECEAAgBgBCAAQIwABAGIEIABAjAAEAIgRgAAAMQIQACBGAAIAxAhAAIAYAQgAECMAAQBiBCAAQIwABACIEYAAADECEAAgRgACAMQIQACAGAEIABAjAAEAYgQgAECMAAQAiBGAAAAxAhAAIEYAAgDECEAAgBgBCAAQIwABAGIEIABAjAAEAIgRgAAAMQIQACBGAAIAxAhAAIAYAQgAECMAAQBiBCAAQIwABACIEYAAADECEAAgRgACAMQIQACAGAEIABAjAAEAYgQgAECMAAQAiBGAAAAxAhAAIEYAAgDECEAAgBgBCAAQIwABAGIu0wM4r7WmFwAAf8MDCAAQIwABAGIEIABAjAAEAIgRgAAAMQIQACBGAAIAxAhAAIAYAQgAECMAAQBiBCAAQIwABACIEYAAADECEAAgRgACAMQIQACAGAEIABAjAAEAYgQgAECMAAQAiBGAAAAxAhAAIEYAAgDECEAAgBgBCAAQIwABAGIEIABAjAAEAIgRgAAAMQIQACBGAAIAxAhAAIAYAQgAECMAAQBiBCAAQIwABACIEYAAADECEAAgRgACAMQIQACAGAEIABAjAAEAYgQgAECMAAQAiBGAAAAxAhAAIEYAAgDECEAAgBgBCAAQIwABAGIEIABAjAAEAIj5AzHEJ2WxCODNAAAAAElFTkSuQmCC;clipPath=inset(12.67% 21% 11.33% 22%);opacity=70;" vertex="1" parent="1">
          <mxGeometry x="180" y="910.55" width="480" height="480" as="geometry" />
        </mxCell>
        <mxCell id="dCx_wY1wJ-MxOwq4zV9K-22" value="|V|" style="text;html=1;align=center;verticalAlign=middle;whiteSpace=wrap;rounded=0;fontSize=41;fontStyle=2;fontFamily=Times New Roman;" vertex="1" parent="1">
          <mxGeometry x="880" y="1020.55" width="20" height="30" as="geometry" />
        </mxCell>
        <mxCell id="dCx_wY1wJ-MxOwq4zV9K-23" value="" style="shape=curlyBracket;whiteSpace=wrap;html=1;rounded=1;labelPosition=left;verticalLabelPosition=middle;align=right;verticalAlign=middle;rotation=-180;" vertex="1" parent="1">
          <mxGeometry x="845" y="800.55" width="20" height="470" as="geometry" />
        </mxCell>
        <mxCell id="dCx_wY1wJ-MxOwq4zV9K-24" value="" style="shape=curlyBracket;whiteSpace=wrap;html=1;rounded=1;labelPosition=left;verticalLabelPosition=middle;align=right;verticalAlign=middle;rotation=90;" vertex="1" parent="1">
          <mxGeometry x="587.5" y="540.55" width="20" height="470" as="geometry" />
        </mxCell>
        <mxCell id="dCx_wY1wJ-MxOwq4zV9K-25" value="V:={x&lt;sub&gt;1&lt;/sub&gt;,x&lt;sub&gt;2&lt;/sub&gt;,...,x&lt;sub&gt;7&lt;/sub&gt;}" style="text;html=1;align=center;verticalAlign=middle;whiteSpace=wrap;rounded=0;fontSize=25;fontStyle=2;fontFamily=Times New Roman;" vertex="1" parent="1">
          <mxGeometry x="480" y="730.55" width="225" height="30" as="geometry" />
        </mxCell>
        <mxCell id="dCx_wY1wJ-MxOwq4zV9K-26" value="" style="endArrow=classic;startArrow=classic;html=1;rounded=0;entryX=0;entryY=0;entryDx=0;entryDy=0;exitX=0;exitY=0;exitDx=0;exitDy=0;" edge="1" parent="1" source="dCx_wY1wJ-MxOwq4zV9K-18">
          <mxGeometry width="50" height="50" relative="1" as="geometry">
            <mxPoint x="280" y="880.55" as="sourcePoint" />
            <mxPoint x="370" y="800.55" as="targetPoint" />
          </mxGeometry>
        </mxCell>
        <mxCell id="dCx_wY1wJ-MxOwq4zV9K-27" value="&lt;font face=&quot;Times New Roman&quot;&gt;&lt;i&gt;|E|&lt;/i&gt;&lt;/font&gt;" style="text;html=1;align=center;verticalAlign=middle;whiteSpace=wrap;rounded=0;fontSize=34;" vertex="1" parent="1">
          <mxGeometry x="210" y="800.55" width="60" height="30" as="geometry" />
        </mxCell>
      </root>
    </mxGraphModel>
  </diagram>
</mxfile>
